<?xml version="1.0" encoding="utf-8"?>
<!-- Generator: Adobe Illustrator 16.0.0, SVG Export Plug-In . SVG Version: 6.00 Build 0)  -->
<!DOCTYPE svg PUBLIC "-//W3C//DTD SVG 1.1//EN" "http://www.w3.org/Graphics/SVG/1.1/DTD/svg11.dtd">
<svg version="1.1" id="Camada_1" xmlns="http://www.w3.org/2000/svg" xmlns:xlink="http://www.w3.org/1999/xlink" x="0px" y="0px"
	 width="156.5px" height="156.503px" viewBox="0 0 156.5 156.503" enable-background="new 0 0 156.5 156.503" xml:space="preserve">
<g>
	<g>
		<path fill="#666666" d="M112.471,126.677c-5.703,0-11.686-0.451-17.758-1.359c-31.982-4.785-51.724-19.654-50.096-30.541
			l3.228-21.565c1.147-7.655,12.077-13.534,28.524-15.343l0.444,4.043c-16.181,1.78-24.274,7.417-24.946,11.902l-0.464,3.104
			c0.975,0.887,2.414,2.14,3.389,2.921c2.695,2.07,5.75,4.021,9.045,5.769c9.708,5.082,21.626,8.786,34.454,10.707
			c12.958,1.94,25.371,1.884,35.9-0.16c1.494-0.268,2.955-0.583,4.377-0.946c-1.045-0.738-2.082-1.414-3.008-1.904
			c-9.697-5.081-21.615-8.784-34.453-10.705c-4.4-0.661-8.823-1.098-13.146-1.294l0.186-4.063c4.463,0.204,9.025,0.652,13.563,1.334
			c13.282,1.987,25.644,5.835,35.748,11.128c1.892,1.004,4.004,2.529,5.951,4.028c0.44-0.157,0.875-0.319,1.306-0.487
			c1.297-0.515,2.469-1.021,3.473-1.504c0.771-0.354,1.506-0.726,2.219-1.121l0.361-2.055c1.147-7.678-16.047-21.278-46.681-25.869
			c-2.924-0.437-5.873-0.77-8.767-0.99l0.309-4.056c2.99,0.228,6.039,0.572,9.061,1.023c31.981,4.792,51.721,19.663,50.093,30.544
			l-2.333,13.248l-0.887,8.232c-0.869,5.819-7.403,10.711-17.938,13.504C127.414,125.848,120.2,126.677,112.471,126.677z
			 M50.686,81.708l-2.047,13.67c-1.156,7.732,16.042,21.332,46.675,25.916c13.766,2.061,27,1.697,37.267-1.023
			c8.631-2.287,14.356-6.152,14.946-10.091l1.548-14.365c-0.862,0.392-1.829,0.802-2.873,1.216
			c-3.507,1.363-7.292,2.412-11.267,3.121c-10.944,2.126-23.834,2.191-37.246,0.186C84.417,98.349,72.056,94.5,61.94,89.207
			c-3.505-1.859-6.751-3.934-9.66-6.168C51.799,82.653,51.244,82.187,50.686,81.708z"/>
	</g>
	<g>
		<path fill="#666666" d="M105.038,56.337"/>
	</g>
	<g>
		<path fill="#666666" d="M29.501,128.208c-3.422,0-6.259-0.894-8.281-2.748L8.435,113.734l4.125-0.68
			c0.768-0.126,1.562-0.284,2.357-0.469c1.336-0.314,2.689-0.717,3.835-1.067c3.203-1.069,6.527-2.513,9.833-4.272
			c5.599-3.018,11.237-6.916,16.75-11.584l2.628,3.105c-5.728,4.85-11.601,8.906-17.457,12.062
			c-3.514,1.873-7.049,3.405-10.514,4.562c-0.876,0.27-1.837,0.557-2.834,0.822l6.813,6.248c4.518,4.146,18.792,0.719,34.858-12.193
			l2.548,3.17C49.539,122.953,37.803,128.208,29.501,128.208z M79.956,94.742l-3.171-2.547
			c15.76-19.618,20.361-38.289,14.771-43.418l-6.858-6.287c-0.154,0.893-0.345,1.859-0.567,2.878
			c-0.833,3.673-2.081,7.396-3.713,11.084c-4.361,10.26-11.52,20.98-20.689,30.975l-2.997-2.75
			c8.861-9.657,15.761-19.978,19.955-29.844c1.538-3.475,2.702-6.948,3.474-10.349c0.296-1.354,0.532-2.614,0.698-3.731
			c0.146-0.89,0.25-1.741,0.313-2.555l0.327-4.157L94.307,45.78C102.371,53.18,96.066,74.687,79.956,94.742z"/>
	</g>
	<g>
		<path fill="#666666" d="M19.001,113.365l-3.968-0.895c0.771-3.418,2.307-8.584,4.004-12.42
			c4.371-10.271,11.529-20.99,20.69-30.973C48.795,59.188,58.9,51.094,68.949,45.67c3.571-1.897,8.555-3.873,11.914-4.992
			l1.285,3.859c-3.198,1.065-7.927,2.938-11.279,4.718C61.227,54.46,51.49,62.267,42.724,71.827
			c-8.853,9.646-15.753,19.967-19.956,29.844C21.171,105.281,19.728,110.139,19.001,113.365z"/>
	</g>
	<g>
		<path fill="#666666" d="M14.88,119.648l-9.729-8.924c-4.276-3.922-4.676-12.075-1.097-22.369
			C7.72,77.812,15.122,66.136,24.896,55.48c9.778-10.658,20.774-19.04,30.962-23.601c9.949-4.454,18.105-4.758,22.382-0.834
			l9.703,8.898l-2.748,2.998l-9.705-8.899c-2.935-2.693-9.821-2.099-17.971,1.549c-9.693,4.34-20.215,12.379-29.626,22.639
			C18.486,68.486,11.384,79.66,7.896,89.691c-2.932,8.434-2.931,15.344,0.004,18.035l9.729,8.924L14.88,119.648z"/>
	</g>
	<g>
		<path fill="#666666" d="M23.156,53.88"/>
	</g>
	<g>
		<path fill="#666666" stroke="#000000" stroke-width="4.0675" stroke-miterlimit="10" d="M143.338,96.255"/>
	</g>
</g>
</svg>
