<?xml version="1.0" encoding="utf-8"?>
<!-- Generator: Adobe Illustrator 16.0.0, SVG Export Plug-In . SVG Version: 6.00 Build 0)  -->
<!DOCTYPE svg PUBLIC "-//W3C//DTD SVG 1.1//EN" "http://www.w3.org/Graphics/SVG/1.1/DTD/svg11.dtd">
<svg version="1.1" id="Camada_1" xmlns="http://www.w3.org/2000/svg" xmlns:xlink="http://www.w3.org/1999/xlink" x="0px" y="0px"
	 width="156.5px" height="156.503px" viewBox="0 0 156.5 156.503" enable-background="new 0 0 156.5 156.503" xml:space="preserve">
<g>
	<g>
		<g>
			<path fill="#000" d="M121.854,151.173c-17.654,0-46.08-13.733-74.034-41.688c-3.376-3.377-6.81-7.391-9.839-10.933
				l-0.921-1.075l3.037-2.604l0.923,1.078c2.982,3.486,6.362,7.438,9.628,10.705c34.096,34.094,71.454,47.691,82.079,37.068
				l2.828,2.828C132.482,149.626,127.771,151.173,121.854,151.173z M130.16,135.6c-28.252-4.478-48.354-21.222-66.521-37.989
				l2.713-2.939c17.718,16.353,37.287,32.678,64.435,36.979L130.16,135.6z M15.747,64.958c-8.889-19.188-9.963-35.557-2.803-42.72
				l7.472-7.512l2.836,2.82l-7.475,7.516c-5.856,5.858-4.442,20.857,3.6,38.214L15.747,64.958z"/>
		</g>
		<g>
			<path fill="#000" d="M131.962,149.769l-0.467-3.794c-0.042-0.343-0.072-0.798-0.108-1.369
				c-0.104-1.681-0.281-4.492-1.195-8.444c-1.387-5.984-3.889-11.637-6.151-16.375c-4.539-9.365-14.071-22.271-29.992-40.604
				l3.021-2.623c16.158,18.605,25.875,31.79,30.576,41.49c2.362,4.945,4.972,10.848,6.443,17.209
				c0.588,2.537,0.893,4.633,1.068,6.293l7.545-6.738c6.139-7.607-5.264-39.462-37.916-73.938l2.904-2.751
				c30.369,32.066,47.474,67.892,38.071,79.267l0.025,0.027l-0.211,0.189c-0.124,0.141-0.253,0.277-0.386,0.41l-0.035-0.035
				L131.962,149.769z M29.554,32.865C27.73,31.35,14.403,29.66,12.165,30.66l-1.783-3.581c3.419-1.71,19.457,0.104,22.111,3.077
				l-2.984,2.664L29.554,32.865z M23.247,17.551l-2.828-2.828c4.256-4.256,23.461-3.953,31.088-2.005l-0.99,3.875
				C42.487,14.542,25.667,15.133,23.247,17.551z"/>
		</g>
	</g>
	<g>
		<g>
			<g>
				<path fill="#000" d="M50.679,100.33c-10.653,0-20.025-3.787-26.389-10.662c-7.485-8.086-10.295-19.548-7.912-32.272
					c2.342-12.507,9.447-24.777,20.006-34.55C48.443,11.682,63.448,5.28,77.551,5.28c10.653,0,20.024,3.787,26.389,10.663
					c15.291,16.52,9.867,46.497-12.094,66.823C79.787,93.928,64.783,100.33,50.679,100.33z M77.551,9.28
					c-13.107,0-27.122,6.014-38.451,16.5c-9.932,9.193-16.605,20.682-18.79,32.35c-2.144,11.45,0.312,21.685,6.916,28.819
					c5.68,6.137,13.79,9.381,23.454,9.381c13.107,0,27.122-6.015,38.451-16.5c20.342-18.828,25.668-46.269,11.875-61.17
					C95.325,12.523,87.215,9.28,77.551,9.28z"/>
			</g>
		</g>
	</g>
	<g>
		<g>
			<path fill="#000" d="M53.297,75.159c-8.853,0-16.069-3.433-19.799-9.419c-7.235-11.614,0.515-29.558,17.275-40
				c7.551-4.704,15.975-7.294,23.72-7.294c8.853,0,16.069,3.433,19.798,9.419c3.585,5.754,3.676,13.143,0.254,20.803
				c-3.304,7.395-9.527,14.212-17.529,19.196C69.466,72.568,61.042,75.159,53.297,75.159z M74.494,22.445
				c-7.008,0-14.68,2.376-21.605,6.69C38,38.411,30.824,53.883,36.893,63.625c2.983,4.788,8.962,7.534,16.404,7.534
				c7.007,0,14.68-2.375,21.604-6.689c7.332-4.567,13.011-10.758,15.992-17.433c2.862-6.409,2.863-12.466,0.004-17.057
				C87.914,25.191,81.936,22.445,74.494,22.445z"/>
		</g>
		<g>
			
				<rect x="92.943" y="44.874" transform="matrix(-0.9089 -0.4171 0.4171 -0.9089 174.034 131.7747)" fill="#000" width="16.94" height="4"/>
		</g>
		<g>
			
				<rect x="75.703" y="68.337" transform="matrix(-0.6321 -0.7749 0.7749 -0.6321 85.5838 181.3097)" fill="#000" width="20.263" height="4"/>
		</g>
		<g>
			<rect x="55.906" y="73.16" fill="#000" width="4" height="24.593"/>
		</g>
		<g>
			
				<rect x="27.779" y="64.376" transform="matrix(-0.7802 -0.6255 0.6255 -0.7802 5.7103 153.2665)" fill="#000" width="4" height="22.508"/>
		</g>
		<g>
			
				<rect x="24.373" y="45.048" transform="matrix(-0.0618 -0.9981 0.9981 -0.0618 -22.6612 80.2188)" fill="#000" width="4" height="11.425"/>
		</g>
		<g>
			
				<rect x="32.358" y="30.001" transform="matrix(-0.8519 -0.5237 0.5237 -0.8519 54.2426 79.342)" fill="#000" width="11.965" height="4"/>
		</g>
		<g>
			
				<rect x="50.699" y="16.958" transform="matrix(-0.554 -0.8325 0.8325 -0.554 71.0389 75.9743)" fill="#000" width="10.343" height="4"/>
		</g>
		<g>
			<rect x="74.897" y="7.281" fill="#000" width="4" height="12.059"/>
		</g>
		<g>
			
				<rect x="95.961" y="16.451" transform="matrix(-0.328 -0.9447 0.9447 -0.328 107.2434 124.6684)" fill="#000" width="4.001" height="15.48"/>
		</g>
	</g>
</g>
</svg>
