<?xml version="1.0" encoding="utf-8"?>
<!-- Generator: Adobe Illustrator 16.0.0, SVG Export Plug-In . SVG Version: 6.00 Build 0)  -->
<!DOCTYPE svg PUBLIC "-//W3C//DTD SVG 1.1//EN" "http://www.w3.org/Graphics/SVG/1.1/DTD/svg11.dtd">
<svg version="1.1" id="Camada_1" xmlns="http://www.w3.org/2000/svg" xmlns:xlink="http://www.w3.org/1999/xlink" x="0px" y="0px"
	 width="156.5px" height="156.503px" viewBox="0 0 156.5 156.503" enable-background="new 0 0 156.5 156.503" xml:space="preserve">
<g>
	<g>
		<g>
			<g>
				<path fill="#666666" d="M121.749,150.599c-17.653,0-46.079-13.736-74.031-41.688c-4.657-4.656-8.305-8.73-10.842-12.108
					l-0.924-1.229c-5.88-7.814-15.72-20.897-20.319-31.216c-8.779-19.701-9.822-35.661-2.792-42.693l7.471-7.512l2.836,2.82
					l-7.474,7.516c-5.73,5.731-4.344,20.383,3.613,38.241c4.415,9.904,14.084,22.76,19.862,30.439l0.926,1.23
					c2.425,3.229,5.948,7.158,10.472,11.684c34.096,34.095,71.456,47.689,82.078,37.068l2.828,2.828
					C132.38,149.053,127.67,150.599,121.749,150.599z M130.059,135.028c-28.974-4.591-58.096-25.327-82.001-58.389l3.241-2.344
					c22.941,31.727,51.876,52.421,79.388,56.783L130.059,135.028z"/>
			</g>
			<g>
				<path fill="#666666" d="M131.859,149.196l-0.467-3.794c-0.041-0.342-0.072-0.798-0.107-1.371
					c-0.104-1.68-0.281-4.492-1.195-8.441c-1.385-5.981-3.886-11.635-6.15-16.375c-4.818-9.941-17.767-27.691-32.979-45.211
					l3.021-2.623c15.426,17.763,28.601,35.857,33.564,46.1c2.362,4.945,4.973,10.852,6.441,17.207
					c0.589,2.538,0.894,4.633,1.068,6.294l7.559-6.753c6.31-7.732-4.342-38.448-36.754-72.671l2.904-2.751
					c29.74,31.402,46.314,66.662,36.897,78.013l0.024,0.027l-0.205,0.184c-0.127,0.144-0.258,0.282-0.393,0.417l-0.035-0.035
					L131.859,149.196z M29.806,33.17c-1.883-1.641-15.491-4.001-17.753-3.079l-1.771-3.586c3.55-1.772,19.93,1.117,22.473,3.965
					l-2.983,2.664L29.806,33.17z M23.145,16.977l-2.828-2.828c3.817-3.817,17.219-6.813,25.694-4.646l-0.99,3.875
					C37.656,11.495,25.833,14.289,23.145,16.977z"/>
			</g>
		</g>
	</g>
	<g>
		<path fill="#666666" d="M71.604,80.794c-0.001,0-0.001,0-0.003,0c-9.533,0-20.029-2.127-31.195-6.324l-0.416-0.156l-0.311-0.316
			c-8.529-8.683-11.871-24.54-9.408-44.651l0.035-0.202c3.92-17.196,17.766-23.297,28.431-23.297c7.406,0,14.214,2.714,18.212,7.261
			c2.417,2.749,3.709,6.017,3.802,9.564c1.169-0.107,2.324-0.161,3.456-0.161c15.16,0,26.868,10.113,27.84,24.046
			c0.309,4.369-0.361,14.049-5.105,19.404C98.221,75.804,86.329,80.794,71.604,80.794z M42.243,70.868
			c10.554,3.922,20.429,5.91,29.359,5.911h0.002c13.526,0,24.403-4.536,32.33-13.48c3.168-3.576,4.479-11.149,4.104-16.458
			C107.204,34.882,97.404,26.53,84.206,26.53c-1.709,0-3.485,0.138-5.279,0.411l-2.635,0.401l0.341-2.644
			c0.438-3.394-0.471-6.4-2.701-8.938c-3.247-3.692-8.927-5.896-15.195-5.896c-9.606,0-21.072,5.275-24.491,20.074
			C31.99,48.509,34.828,63.014,42.243,70.868z"/>
	</g>
	<g>
		<path fill="#666666" d="M67.833,66.523c-9.7,0-19.016-1.742-25.156-4.05l-0.633-0.238l-0.36-0.572
			c-0.834-1.325-1.786-2.616-2.793-3.982c-4.529-6.146-9.662-13.113-8.629-28.228l4.008,0.274
			c-0.933,13.644,3.535,19.707,7.855,25.57c0.909,1.234,1.775,2.409,2.583,3.641c11.912,4.249,35.229,6.294,49.103-2.632
			c6.847-4.405,10.616-11.043,11.207-19.731l4.008,0.272c-0.68,10.024-5.067,17.708-13.041,22.837
			C88.232,64.673,77.829,66.523,67.833,66.523z"/>
	</g>
</g>
</svg>
