<?xml version="1.0" encoding="utf-8"?>
<!-- Generator: Adobe Illustrator 16.0.0, SVG Export Plug-In . SVG Version: 6.00 Build 0)  -->
<!DOCTYPE svg PUBLIC "-//W3C//DTD SVG 1.1//EN" "http://www.w3.org/Graphics/SVG/1.1/DTD/svg11.dtd">
<svg version="1.1" id="Camada_1" xmlns="http://www.w3.org/2000/svg" xmlns:xlink="http://www.w3.org/1999/xlink" x="0px" y="0px"
	 width="156.5px" height="156.503px" viewBox="0 0 156.5 156.503" enable-background="new 0 0 156.5 156.503" xml:space="preserve">
<g>
	<g>
		<g>
			<path fill="#000" d="M37.596,63.81c-1.423,0-2.579-0.314-2.707-0.35c-4.727-1.195-8.067-5.49-8.067-10.429
				c0-2.303,0.716-4.501,2.071-6.356l3.538,2.584c-0.804,1.1-1.229,2.404-1.229,3.772c0,2.931,1.981,5.479,4.817,6.197
				c0.053,0.014,0.754,0.201,1.575,0.201c0.82,0,1.521-0.187,1.527-0.189c2.881-0.73,4.862-3.278,4.862-6.209
				c0-1.371-0.424-2.674-1.227-3.771l3.534-2.589c1.356,1.852,2.073,4.05,2.073,6.358c0,4.939-3.34,9.234-8.122,10.444
				C40.174,63.496,39.018,63.81,37.596,63.81z"/>
		</g>
		<g>
			<path fill="#000" d="M37.836,146.873c-19.206,0-33.145-14.961-33.145-35.576c0-21.193,27.651-50.169,33.293-50.169
				c3.791,0,13.168,10.035,18.616,17.161c5.371,7.025,14.381,20.656,14.381,33.008C70.981,131.912,57.042,146.873,37.836,146.873z
				 M37.983,65.566c-4.66,1.954-28.911,27.008-28.911,45.73c0,18.367,11.828,31.195,28.764,31.195s28.765-12.828,28.765-31.195
				C66.601,92.578,42.6,67.526,37.983,65.566z"/>
		</g>
		<g>
			<path fill="#000" d="M45.086,49.252H30.104c-4.677,0-8.481-3.804-8.481-8.479v-7.83c0-4.676,3.805-8.479,8.481-8.479h14.982
				c4.677,0,8.481,3.804,8.481,8.479v7.83C53.567,45.449,49.763,49.252,45.086,49.252z M30.104,28.844
				c-2.261,0-4.101,1.839-4.101,4.099v7.83c0,2.26,1.84,4.099,4.101,4.099h14.982c2.261,0,4.101-1.839,4.101-4.099v-7.83
				c0-2.26-1.839-4.099-4.101-4.099H30.104z"/>
		</g>
		<g>
			<path fill="#000" d="M46.294,26.769l-3.536-2.587c0.803-1.098,1.228-2.401,1.228-3.771c0-2.931-1.98-5.479-4.816-6.197
				c-0.052-0.014-0.754-0.201-1.574-0.201c-0.821,0-1.521,0.187-1.527,0.189c-2.883,0.73-4.864,3.278-4.864,6.209
				c0,1.369,0.425,2.673,1.228,3.771l-3.536,2.587c-1.356-1.854-2.072-4.052-2.072-6.357c0-4.939,3.34-9.234,8.124-10.444
				c0.069-0.021,1.225-0.335,2.648-0.335c1.421,0,2.578,0.314,2.706,0.35c4.726,1.195,8.065,5.49,8.065,10.429
				C48.366,22.716,47.65,24.915,46.294,26.769z"/>
		</g>
	</g>
	<g>
		<g>
			<path fill="#000" d="M118.422,63.81c-1.424,0-2.58-0.314-2.707-0.35c-4.727-1.195-8.066-5.49-8.066-10.429
				c0-2.301,0.715-4.499,2.07-6.355l3.539,2.583c-0.805,1.102-1.229,2.406-1.229,3.772c0,2.931,1.98,5.479,4.816,6.197
				c0.055,0.014,0.754,0.201,1.576,0.201c0.82,0,1.521-0.187,1.527-0.189c2.882-0.73,4.861-3.278,4.861-6.209
				c0-1.37-0.424-2.674-1.228-3.771l3.535-2.589c1.356,1.852,2.073,4.051,2.073,6.358c0,4.938-3.34,9.233-8.121,10.444
				C121,63.496,119.844,63.81,118.422,63.81z"/>
		</g>
		<g>
			<path fill="#000" d="M118.666,146.873c-19.207,0-33.146-14.961-33.146-35.576c0-21.193,27.648-50.169,33.291-50.169
				c3.791,0,13.17,10.035,18.616,17.161c5.372,7.025,14.384,20.656,14.384,33.008C151.811,131.912,137.871,146.873,118.666,146.873z
				 M118.809,65.566c-4.66,1.958-28.908,27.014-28.908,45.73c0,18.367,11.828,31.195,28.767,31.195
				c16.935,0,28.763-12.828,28.763-31.195C147.43,92.578,123.427,67.526,118.809,65.566z"/>
		</g>
		<g>
			<path fill="#000" d="M125.912,49.252H110.93c-4.676,0-8.479-3.804-8.479-8.479v-7.83c0-4.676,3.804-8.479,8.479-8.479h14.982
				c4.676,0,8.479,3.804,8.479,8.479v7.83C134.393,45.449,130.588,49.252,125.912,49.252z M110.93,28.844
				c-2.26,0-4.099,1.839-4.099,4.099v7.83c0,2.26,1.839,4.099,4.099,4.099h14.982c2.26,0,4.1-1.839,4.1-4.099v-7.83
				c0-2.26-1.84-4.099-4.1-4.099H110.93z"/>
		</g>
		<g>
			<path fill="#000" d="M127.12,26.769l-3.537-2.587c0.804-1.098,1.229-2.402,1.229-3.771c0-2.931-1.98-5.479-4.815-6.197
				c-0.054-0.014-0.756-0.201-1.576-0.201c-0.819,0-1.521,0.187-1.526,0.189c-2.884,0.73-4.865,3.278-4.865,6.209
				c0,1.369,0.426,2.672,1.229,3.771l-3.536,2.587c-1.355-1.854-2.072-4.053-2.072-6.357c0-4.939,3.341-9.234,8.123-10.444
				c0.07-0.021,1.228-0.335,2.648-0.335s2.579,0.314,2.706,0.35c4.728,1.196,8.065,5.491,8.065,10.429
				C129.191,22.716,128.477,24.914,127.12,26.769z"/>
		</g>
	</g>
</g>
</svg>
