<?xml version="1.0" encoding="utf-8"?>
<!-- Generator: Adobe Illustrator 16.0.0, SVG Export Plug-In . SVG Version: 6.00 Build 0)  -->
<!DOCTYPE svg PUBLIC "-//W3C//DTD SVG 1.1//EN" "http://www.w3.org/Graphics/SVG/1.1/DTD/svg11.dtd">
<svg version="1.1" id="Camada_1" xmlns="http://www.w3.org/2000/svg" xmlns:xlink="http://www.w3.org/1999/xlink" x="0px" y="0px"
	 width="156.5px" height="156.503px" viewBox="0 0 156.5 156.503" enable-background="new 0 0 156.5 156.503" xml:space="preserve">
<g>
	<path fill="#666666" d="M31.622,135.189c-2.191,0-4.688-1.177-6.922-3.398c-2.888-2.871-4.758-7.135-2.427-10.183
		c14.171-18.517,60.222-65.632,62.175-67.628l2.858,2.797c-0.477,0.487-47.834,48.938-61.856,67.262
		c-0.684,0.895,0.245,3.101,2.071,4.916c1.799,1.789,3.973,2.695,4.85,2.02c20.587-15.91,65.877-62.268,66.333-62.734l2.862,2.793
		c-0.457,0.469-45.941,47.025-66.75,63.105C33.901,134.845,32.806,135.189,31.622,135.189z"/>
</g>
<g>
	<path fill="#666666" d="M101.049,73.378L82.107,54.435l1.336-1.414c1.354-1.431,33.341-35.159,50.236-44.964
		c1.254-0.728,2.588-1.361,4.199-1.995c0.334-0.131,0.694-0.197,1.071-0.197c3.002,0,7.592,4.773,9.271,7.208
		c1.293,1.875,1.682,3.312,1.221,4.522c-0.534,1.402-1.258,2.928-2.149,4.536c-9.31,16.799-43.384,48.587-44.83,49.932
		L101.049,73.378z M87.693,54.365l13.447,13.449c6.623-6.269,34.689-33.253,42.652-47.621c0.734-1.327,1.338-2.577,1.793-3.721
		c-0.551-1.701-4.857-6.026-6.542-6.568c-1.284,0.517-2.358,1.033-3.356,1.613C121.191,19.929,94.033,47.771,87.693,54.365z"/>
</g>
<g>
	
		<rect x="119.025" y="24.982" transform="matrix(-0.7071 -0.7071 0.7071 -0.7071 200.1984 136.8919)" fill="#666666" width="18.852" height="4.001"/>
</g>
<g>
	<path fill="#666666" d="M5.672,150.744l3.058-5.758c0.382-0.721,9.41-17.697,13.584-23.434l3.234,2.354
		c-2.505,3.442-7.031,11.479-10.097,17.065c5.542-3.038,13.491-7.513,16.968-10.035l2.349,3.237
		c-5.808,4.215-22.623,13.14-23.335,13.518L5.672,150.744z"/>
</g>
</svg>
