<?xml version="1.0" encoding="utf-8"?>
<!-- Generator: Adobe Illustrator 16.0.0, SVG Export Plug-In . SVG Version: 6.00 Build 0)  -->
<!DOCTYPE svg PUBLIC "-//W3C//DTD SVG 1.1//EN" "http://www.w3.org/Graphics/SVG/1.1/DTD/svg11.dtd">
<svg version="1.1" id="Camada_1" xmlns="http://www.w3.org/2000/svg" xmlns:xlink="http://www.w3.org/1999/xlink" x="0px" y="0px"
	 width="156.5px" height="156.503px" viewBox="0 0 156.5 156.503" enable-background="new 0 0 156.5 156.503" xml:space="preserve">
<g>
	<g>
		<path fill="#666666" d="M30.079,144.589c-6.326,0-9.595-5.791-10.115-8.434l-0.035-0.275c-1.62-29.412-1.221-61.723,1.296-104.763
			l3.995,0.206l-0.001,0.028c0,0.002,0,0.008,0,0.011l-0.013,0.241c-0.066,1.158-0.241,4.235,1.479,6.055
			c1.241,1.314,3.408,1.845,6.377,1.563l104.25-13.084l0.223,105.28l-1.76,0.217L31.411,144.505
			C30.973,144.561,30.521,144.589,30.079,144.589z M23.915,135.501c0.351,1.429,2.377,5.088,6.164,5.088
			c0.271,0,0.55-0.019,0.83-0.055l102.618-12.654l-0.205-97.211L33.498,43.196c-0.701,0.067-1.325,0.098-1.917,0.098
			c-2.85,0-5.168-0.696-6.912-2.073C22.666,79.171,22.439,108.578,23.915,135.501z"/>
	</g>
	<g>
		<polygon fill="#666666" points="23.607,33.195 22.837,29.271 113.523,11.475 113.206,31.274 109.206,31.21 109.445,16.352 		"/>
	</g>
</g>
</svg>
