<?xml version="1.0" encoding="utf-8"?>
<!-- Generator: Adobe Illustrator 16.0.0, SVG Export Plug-In . SVG Version: 6.00 Build 0)  -->
<!DOCTYPE svg PUBLIC "-//W3C//DTD SVG 1.1//EN" "http://www.w3.org/Graphics/SVG/1.1/DTD/svg11.dtd">
<svg version="1.1" id="Camada_1" xmlns="http://www.w3.org/2000/svg" xmlns:xlink="http://www.w3.org/1999/xlink" x="0px" y="0px"
	 width="156.5px" height="156.503px" viewBox="0 0 156.5 156.503" enable-background="new 0 0 156.5 156.503" xml:space="preserve">
<g>
	<g>
		<g>
			<path fill="#666666" d="M71.11,63.923C57.725,60.641,48.376,48.71,48.376,34.911c0-16.473,13.401-29.874,29.874-29.874
				c16.473,0,29.874,13.401,29.874,29.874c0,13.724-9.285,25.639-22.581,28.975l-0.973-3.88
				c11.513-2.889,19.554-13.208,19.554-25.095c0-14.267-11.606-25.874-25.874-25.874c-14.267,0-25.874,11.607-25.874,25.874
				c0,11.952,8.096,22.285,19.688,25.127L71.11,63.923z"/>
		</g>
		<g>
			<path fill="#666666" d="M70.962,52.155c-6.944-2.936-11.43-9.705-11.43-17.244c0-10.321,8.397-18.718,18.718-18.718
				c10.32,0,18.717,8.397,18.717,18.718c0,7.203-4.21,13.848-10.726,16.929l-1.709-3.616c5.124-2.423,8.435-7.648,8.435-13.313
				c0-8.116-6.602-14.718-14.717-14.718s-14.718,6.603-14.718,14.718c0,5.928,3.528,11.25,8.988,13.56L70.962,52.155z"/>
		</g>
	</g>
	<g>
		<path fill="#666666" d="M97.507,151.466h-38.56c-3.723,0-6.751-3.029-6.751-6.752V78.113c0-3.722,3.028-6.75,6.751-6.75h12.45v4
			h-12.45c-1.517,0-2.751,1.234-2.751,2.75v66.602c0,1.519,1.234,2.752,2.751,2.752h38.56c1.517,0,2.75-1.233,2.75-2.752V78.113
			c0-1.516-1.233-2.75-2.75-2.75H85.439v-4h12.066c3.723,0,6.75,3.028,6.75,6.75v66.602
			C104.257,148.437,101.229,151.466,97.507,151.466z"/>
	</g>
	<g>
		<path fill="#666666" d="M80.307,85.966h-4.158c-3.723,0-6.751-3.028-6.751-6.75V46.853c0-3.722,3.028-6.75,6.751-6.75h4.158
			c3.723,0,6.75,3.028,6.75,6.75v32.363C87.057,82.938,84.027,85.966,80.307,85.966z M76.149,44.103
			c-1.517,0-2.751,1.234-2.751,2.75v32.363c0,1.517,1.234,2.75,2.751,2.75h4.158c1.518,0,2.75-1.233,2.75-2.75V46.853
			c0-1.516-1.232-2.75-2.75-2.75H76.149z"/>
	</g>
</g>
</svg>
