<?xml version="1.0" encoding="utf-8"?>
<!-- Generator: Adobe Illustrator 16.0.0, SVG Export Plug-In . SVG Version: 6.00 Build 0)  -->
<!DOCTYPE svg PUBLIC "-//W3C//DTD SVG 1.1//EN" "http://www.w3.org/Graphics/SVG/1.1/DTD/svg11.dtd">
<svg version="1.1" id="Camada_1" xmlns="http://www.w3.org/2000/svg" xmlns:xlink="http://www.w3.org/1999/xlink" x="0px" y="0px"
	 width="156.5px" height="156.503px" viewBox="0 0 156.5 156.503" enable-background="new 0 0 156.5 156.503" xml:space="preserve">
<g>
	<g>
		<g>
			<path fill="#666666" d="M84,31.953H71.993c-4.416,0-8.008-4.04-8.008-9.004v-12.46c0-4.965,3.592-9.004,8.008-9.004H84
				c4.415,0,8.007,4.039,8.007,9.004v12.46C92.007,27.914,88.415,31.953,84,31.953z M71.993,5.485c-2.173,0-4.008,2.292-4.008,5.004
				v12.46c0,2.713,1.835,5.004,4.008,5.004H84c2.172,0,4.007-2.292,4.007-5.004v-12.46c0-2.712-1.835-5.004-4.007-5.004H71.993
				L71.993,5.485z"/>
		</g>
		<g>
			<path fill="#666666" d="M100.074,30.4c-0.176,0-0.354-0.011-0.529-0.034l-5.895-0.768c-2.764-0.36-4.578-3.348-4.129-6.804
				l0.968-7.435c0.44-3.388,2.983-5.886,5.733-5.522l5.896,0.768c1.425,0.186,2.676,1.115,3.432,2.549
				c0.646,1.227,0.894,2.739,0.695,4.256l-0.966,7.433C104.865,28.012,102.627,30.4,100.074,30.4z M95.705,13.804
				c-0.305,0-1.071,0.705-1.249,2.072l-0.968,7.435c-0.186,1.417,0.438,2.29,0.679,2.321l5.907,0.769
				c0.289,0,1.06-0.706,1.238-2.074l0.965-7.434c0.092-0.696-0.006-1.378-0.268-1.874c-0.162-0.308-0.337-0.438-0.41-0.447
				L95.705,13.804L95.705,13.804z"/>
		</g>
		<g>
			<path fill="#666666" d="M55.664,30.4c-2.554,0-4.792-2.389-5.205-5.556l-0.968-7.436c-0.197-1.517,0.05-3.028,0.696-4.255
				c0.756-1.434,2.008-2.363,3.434-2.549l5.895-0.768c2.714-0.355,5.29,2.133,5.732,5.522l0.967,7.435
				c0.198,1.517-0.048,3.028-0.694,4.254c-0.756,1.435-2.007,2.364-3.434,2.55l-5.893,0.768C56.016,30.389,55.839,30.4,55.664,30.4z
				 M60.048,13.803l-5.911,0.77c-0.073,0.009-0.249,0.139-0.412,0.448c-0.261,0.495-0.359,1.177-0.268,1.873l0.968,7.435
				c0.178,1.367,0.949,2.073,1.238,2.073l0.014-0.001l5.892-0.768c0.073-0.009,0.249-0.139,0.411-0.447
				c0.26-0.495,0.358-1.178,0.267-1.873l-0.967-7.436C61.105,14.53,60.327,13.803,60.048,13.803z"/>
		</g>
	</g>
	<g>
		<path fill="#666666" d="M77.226,142.683c-27.246,0-43.512-22.79-43.512-60.963c0-25.563,2.984-42.579,18.235-53.91l2.386,3.211
			C40.434,41.349,37.714,57.431,37.714,81.72c0,35.668,14.771,56.963,39.512,56.963c24.739,0,39.508-21.295,39.508-56.963
			c0-24.599-2.553-39.892-16.019-50.245l2.438-3.171c14.703,11.305,17.58,28.146,17.58,53.416
			C120.734,119.893,104.471,142.683,77.226,142.683z"/>
	</g>
	<g>
		<path fill="#666666" d="M77.224,155.017c-33.133,0-53.716-28.369-53.716-74.036c0-32.319,7.794-52.522,25.271-65.506l2.386,3.211
			C34.804,30.84,27.508,50.053,27.508,80.981c0,21.206,4.53,38.896,13.101,51.153c8.637,12.354,21.299,18.883,36.615,18.883
			s27.977-6.529,36.613-18.883c8.57-12.26,13.101-29.947,13.101-51.153c0-30.926-6.853-49.389-22.914-61.736l2.438-3.171
			c16.929,13.013,24.478,33.031,24.478,64.907C130.938,126.648,110.355,155.017,77.224,155.017z"/>
	</g>
</g>
</svg>
