<?xml version="1.0" encoding="utf-8"?>
<!-- Generator: Adobe Illustrator 16.0.0, SVG Export Plug-In . SVG Version: 6.00 Build 0)  -->
<!DOCTYPE svg PUBLIC "-//W3C//DTD SVG 1.1//EN" "http://www.w3.org/Graphics/SVG/1.1/DTD/svg11.dtd">
<svg version="1.1" id="Camada_1" xmlns="http://www.w3.org/2000/svg" xmlns:xlink="http://www.w3.org/1999/xlink" x="0px" y="0px"
	 width="156.5px" height="156.503px" viewBox="0 0 156.5 156.503" enable-background="new 0 0 156.5 156.503" xml:space="preserve">
<g>
	<g>
		<g>
			<path fill="#000" d="M78.25,87.125v-3.6c23.936,0,34.966-24.367,46.645-50.164c4.629-10.222,9.412-20.792,15.125-30.007
				l3.061,1.896c-5.589,9.017-10.325,19.479-14.905,29.596C116.003,61.732,104.508,87.125,78.25,87.125z"/>
		</g>
		<g>
			<path fill="#000" d="M78.25,87.125c-26.258,0-37.754-25.394-49.925-52.278c-4.58-10.117-9.316-20.578-14.904-29.595
				l3.06-1.896c5.711,9.215,10.497,19.785,15.124,30.006C43.284,59.159,54.314,83.526,78.25,83.526V87.125z"/>
		</g>
	</g>
	<g>
		<path fill="#000" d="M78.25,154.201c-13.352,0-24.215-10.861-24.215-24.215c0-12.802,21.705-41.199,22.629-42.402l1.586-2.063
			l1.586,2.063c0.924,1.203,22.629,29.604,22.629,42.402C102.465,143.337,91.604,154.201,78.25,154.201z M78.25,92.126
			c-6.84,9.233-20.215,29.099-20.215,37.858c0,11.146,9.068,20.216,20.215,20.216c11.146,0,20.215-9.068,20.215-20.216
			C98.465,121.227,85.091,101.362,78.25,92.126z"/>
	</g>
	<g>
		<path fill="#000" d="M78.25,139.481c-6.619,0-12.003-5.384-12.003-12.002c0-6.03,9.351-18.375,10.417-19.765l1.586-2.063
			l1.586,2.063c1.066,1.389,10.418,13.734,10.418,19.765C90.254,134.097,84.869,139.481,78.25,139.481z M78.25,112.291
			c-3.59,4.994-8.003,12.135-8.003,15.188c0,4.412,3.59,8.002,8.003,8.002s8.004-3.59,8.004-8.002
			C86.254,124.421,81.841,117.283,78.25,112.291z"/>
	</g>
</g>
</svg>
