<?xml version="1.0" encoding="utf-8"?>
<!-- Generator: Adobe Illustrator 16.0.4, SVG Export Plug-In . SVG Version: 6.00 Build 0)  -->
<!DOCTYPE svg PUBLIC "-//W3C//DTD SVG 1.1//EN" "http://www.w3.org/Graphics/SVG/1.1/DTD/svg11.dtd">
<svg version="1.1" id="Camada_1" xmlns="http://www.w3.org/2000/svg" xmlns:xlink="http://www.w3.org/1999/xlink" x="0px" y="0px"
	 width="156.5px" height="156.503px" viewBox="0 0 156.5 156.503" enable-background="new 0 0 156.5 156.503" xml:space="preserve">
<rect fill="none" width="156.5" height="156.502"/>
<g>
	<g>
		<path fill="none" stroke="#666766" stroke-width="4" stroke-miterlimit="10" d="M64.995,96.141
			c16.874,15.573,37.312,33.021,65.478,37.484 M17.478,38.027 M17.562,64.117c-8.51-18.369-9.74-33.926-3.203-40.465l7.475-7.516
			 M134.14,145.142c-11.456,11.454-49.138-1.302-84.906-37.069c-3.672-3.673-7.503-8.217-10.656-11.897"/>
		<path fill="none" stroke="#666766" stroke-width="4" stroke-miterlimit="10" d="M23.104,14.655 M31.001,31.488
			c-1.909-2.139-16.974-3.995-19.724-2.62 M144.454,135.928l-10.974,9.803c-0.166-1.35-0.104-4.674-1.341-10.021
			c-1.299-5.613-3.51-10.959-6.294-16.787c-4.693-9.68-14.499-22.872-30.288-41.051 M106.236,59.5
			c31.596,33.361,46.385,68.26,37.54,77.105 M21.833,16.137c3.283-3.283,21.291-3.497,29.179-1.481"/>
	</g>
	<g>
		<g>
			
				<ellipse transform="matrix(0.6793 0.7339 -0.7339 0.6793 59.3125 -30.1165)" fill="none" stroke="#666766" stroke-width="4" stroke-miterlimit="10" cx="64.114" cy="52.804" rx="38.823" ry="52.263"/>
		</g>
	</g>
	<g>
		
			<ellipse transform="matrix(0.8488 -0.5288 0.5288 0.8488 -15.0864 40.8642)" fill-rule="evenodd" clip-rule="evenodd" fill="none" stroke="#666766" stroke-width="4" stroke-miterlimit="22.9256" cx="63.892" cy="46.805" rx="33.811" ry="22.813"/>
		
			<line fill="none" stroke="#666766" stroke-width="4" stroke-miterlimit="22.9256" x1="93.711" y1="43.34" x2="109.108" y2="50.406"/>
		
			<line fill="none" stroke="#666766" stroke-width="4" stroke-miterlimit="22.9256" x1="79.425" y1="62.485" x2="92.233" y2="78.188"/>
		
			<line fill="none" stroke="#666766" stroke-width="4" stroke-miterlimit="22.9256" x1="57.906" y1="73.16" x2="57.906" y2="97.754"/>
		
			<line fill="none" stroke="#666766" stroke-width="4" stroke-miterlimit="22.9256" x1="36.823" y1="66.853" x2="22.743" y2="84.413"/>
		
			<line fill="none" stroke="#666766" stroke-width="4" stroke-miterlimit="22.9256" x1="32.075" y1="50.406" x2="20.672" y2="51.111"/>
		
			<line fill="none" stroke="#666766" stroke-width="4" stroke-miterlimit="22.9256" x1="43.438" y1="35.134" x2="33.245" y2="28.868"/>
		
			<line fill="none" stroke="#666766" stroke-width="4" stroke-miterlimit="22.9256" x1="58.733" y1="23.266" x2="53.003" y2="14.655"/>
		
			<line fill="none" stroke="#666766" stroke-width="4" stroke-miterlimit="22.9256" x1="76.897" y1="19.34" x2="76.897" y2="7.281"/>
		
			<line fill="none" stroke="#666766" stroke-width="4" stroke-miterlimit="22.9256" x1="90.649" y1="26.723" x2="105.272" y2="21.648"/>
	</g>
</g>
</svg>
