<?xml version="1.0" encoding="utf-8"?>
<!-- Generator: Adobe Illustrator 16.0.4, SVG Export Plug-In . SVG Version: 6.00 Build 0)  -->
<!DOCTYPE svg PUBLIC "-//W3C//DTD SVG 1.1//EN" "http://www.w3.org/Graphics/SVG/1.1/DTD/svg11.dtd">
<svg version="1.1" id="Camada_1" xmlns="http://www.w3.org/2000/svg" xmlns:xlink="http://www.w3.org/1999/xlink" x="0px" y="0px"
	 width="156.5px" height="156.503px" viewBox="0 0 156.5 156.503" enable-background="new 0 0 156.5 156.503" xml:space="preserve">
<g>
	<rect fill="none" width="156.5" height="156.502"/>
	<g>
		<path fill-rule="evenodd" clip-rule="evenodd" fill="none" stroke="#666766" stroke-width="4" stroke-miterlimit="22.9256" d="
			M147.148,69.219c0,13.207-4.734,25.334-12.633,34.857c-3.894-3.146-8.849-5.033-14.244-5.033
			c-12.527,0-22.683,10.156-22.683,22.684c0,0.834,0.047,1.66,0.135,2.473c-2.416,0.307-4.88,0.467-7.382,0.467
			c-2.43,0-4.823-0.15-7.172-0.439c0.09-0.82,0.138-1.654,0.138-2.5c0-12.527-10.155-22.684-22.682-22.684
			c-5.456,0-10.461,1.928-14.374,5.137c-7.139-8.564-11.711-19.248-12.57-30.938l3.754-3.648L147.148,69.219L147.148,69.219z"/>
		<path fill-rule="evenodd" clip-rule="evenodd" fill="none" stroke="#666766" stroke-width="4" stroke-miterlimit="22.9256" d="
			M83.217,68.008v-56.91l0.185-0.002c32.361,0,58.598,25.479,58.599,56.912"/>
		<path fill-rule="evenodd" clip-rule="evenodd" fill="none" stroke="#666766" stroke-width="4" stroke-miterlimit="22.9256" d="
			M60.626,99.043c12.526,0,22.682,10.156,22.682,22.684c0,12.525-10.155,22.682-22.682,22.682
			c-12.527,0-22.682-10.156-22.682-22.682C37.944,109.199,48.099,99.043,60.626,99.043L60.626,99.043z"/>
		<path fill-rule="evenodd" clip-rule="evenodd" fill="none" stroke="#666766" stroke-width="4" stroke-miterlimit="22.9256" d="
			M120.271,99.043c12.526,0,22.681,10.156,22.681,22.684c0,12.525-10.154,22.682-22.681,22.682
			c-12.527,0-22.683-10.156-22.683-22.682C97.589,109.199,107.744,99.043,120.271,99.043L120.271,99.043z"/>
		<path fill-rule="evenodd" clip-rule="evenodd" fill="none" stroke="#666766" stroke-width="4" stroke-miterlimit="22.9256" d="
			M16.244,65.791c-14.236-3.941-9.75-19.912,2.02-15.436c1.986,0.875,5.022,4.418,6.064,5.635
			c4.238,4.947,5.889,7.559,11.107,15.604"/>
	</g>
</g>
</svg>
