<?xml version="1.0" encoding="utf-8"?>
<!-- Generator: Adobe Illustrator 16.0.4, SVG Export Plug-In . SVG Version: 6.00 Build 0)  -->
<!DOCTYPE svg PUBLIC "-//W3C//DTD SVG 1.1//EN" "http://www.w3.org/Graphics/SVG/1.1/DTD/svg11.dtd">
<svg version="1.1" id="Camada_1" xmlns="http://www.w3.org/2000/svg" xmlns:xlink="http://www.w3.org/1999/xlink" x="0px" y="0px"
	 width="156.5px" height="156.503px" viewBox="0 0 156.5 156.503" enable-background="new 0 0 156.5 156.503" xml:space="preserve">
<g>
	<rect fill="none" width="156.5" height="156.504"/>
	<g>
		
			<polyline fill-rule="evenodd" clip-rule="evenodd" fill="none" stroke="#666766" stroke-width="4" stroke-miterlimit="22.9256" points="
			123.139,70.73 132.137,72.08 132.137,84.133 123.139,85.566 		"/>
		
			<polygon fill-rule="evenodd" clip-rule="evenodd" fill="none" stroke="#666766" stroke-width="4" stroke-miterlimit="22.9256" points="
			73.307,48.541 72.213,46.328 71.117,44.115 73.307,44.115 75.498,44.115 74.404,46.328 		"/>
		
			<polygon fill-rule="evenodd" clip-rule="evenodd" fill="none" stroke="#666766" stroke-width="4" stroke-miterlimit="22.9256" points="
			73.307,109.277 74.404,111.49 75.498,113.701 73.307,113.701 71.117,113.701 72.213,111.49 		"/>
		
			<polygon fill-rule="evenodd" clip-rule="evenodd" fill="none" stroke="#666766" stroke-width="4" stroke-miterlimit="22.9256" points="
			103.936,78.148 106.15,77.053 108.361,75.959 108.361,78.148 108.361,80.338 106.15,79.242 		"/>
		
			<polygon fill-rule="evenodd" clip-rule="evenodd" fill="none" stroke="#666766" stroke-width="4" stroke-miterlimit="22.9256" points="
			43.332,78.148 41.119,77.053 38.907,75.959 38.907,78.148 38.907,80.338 41.119,79.242 		"/>
		<g>
			
				<line fill="none" stroke="#666766" stroke-width="4" stroke-miterlimit="22.9256" x1="75.34" y1="82.969" x2="56.225" y2="56.547"/>
			
				<line fill="none" stroke="#666766" stroke-width="4" stroke-miterlimit="22.9256" x1="71.58" y1="82.969" x2="89.053" y2="70.941"/>
		</g>
		
			<circle fill-rule="evenodd" clip-rule="evenodd" fill="none" stroke="#666766" stroke-width="4" stroke-miterlimit="22.9256" cx="73.308" cy="78.148" r="48.944"/>
		<path fill-rule="evenodd" clip-rule="evenodd" fill="none" stroke="#666766" stroke-width="4" stroke-miterlimit="22.9256" d="
			M47.102,35.504V8.723c0-2.848,2.434-5.156,5.438-5.156h41.539c3.002,0,5.436,2.309,5.436,5.156v26.781"/>
		<path fill-rule="evenodd" clip-rule="evenodd" fill="none" stroke="#666766" stroke-width="4" stroke-miterlimit="22.9256" d="
			M47.102,121v26.781c0,2.848,2.434,5.156,5.438,5.156h41.539c3.002,0,5.436-2.309,5.436-5.156V121"/>
	</g>
</g>
</svg>
