<?xml version="1.0" encoding="utf-8"?>
<!-- Generator: Adobe Illustrator 16.0.4, SVG Export Plug-In . SVG Version: 6.00 Build 0)  -->
<!DOCTYPE svg PUBLIC "-//W3C//DTD SVG 1.1//EN" "http://www.w3.org/Graphics/SVG/1.1/DTD/svg11.dtd">
<svg version="1.1" id="Camada_1" xmlns="http://www.w3.org/2000/svg" xmlns:xlink="http://www.w3.org/1999/xlink" x="0px" y="0px"
	 width="156.5px" height="156.503px" viewBox="0 0 156.5 156.503" enable-background="new 0 0 156.5 156.503" xml:space="preserve">
<g>
	<rect fill="none" width="156.5" height="156.502"/>
	<g>
		<path fill-rule="evenodd" clip-rule="evenodd" fill="none" stroke="#666766" stroke-width="4" stroke-miterlimit="22.9256" d="
			M73.889,48.686"/>
		
			<polyline fill-rule="evenodd" clip-rule="evenodd" fill="none" stroke="#666766" stroke-width="4" stroke-miterlimit="22.9256" points="
			28.125,57.027 6.743,49.18 42.497,36.303 78.25,23.426 114.002,36.303 149.757,49.18 114.002,62.057 78.25,74.932 42.497,62.057 
			28.125,57.027 		"/>
		<path fill-rule="evenodd" clip-rule="evenodd" fill="none" stroke="#666766" stroke-width="4" stroke-miterlimit="22.9256" d="
			M36.397,61.143v55.08c13.314,12.982,69.352,13.529,83.704,0v-55.08"/>
		<path fill-rule="evenodd" clip-rule="evenodd" fill="none" stroke="#666766" stroke-width="4" stroke-miterlimit="22.9256" d="
			M18.118,100.973c2.284,0,4.146-1.861,4.146-4.143c0-2.283-1.861-4.146-4.146-4.146c-2.283,0-4.145,1.863-4.145,4.146
			C13.974,99.111,15.835,100.973,18.118,100.973z"/>
		<path fill-rule="evenodd" clip-rule="evenodd" fill="none" stroke="#666766" stroke-width="4" stroke-miterlimit="22.9256" d="
			M14.16,124.078c1.385-11.742,2.189-17.793,3.263-20.832c0.224,0.053,0.455,0.084,0.695,0.084c0.313,0,0.615-0.049,0.898-0.141
			c0.952,2.652,1.965,9.955,3.395,20.889H14.16z"/>
		<path fill-rule="evenodd" clip-rule="evenodd" fill="none" stroke="#666766" stroke-width="4" stroke-miterlimit="22.9256" d="
			M78.456,51.221c4.626,0,8.404-1.91,8.404-4.256c0-2.344-3.778-4.256-8.404-4.256c-4.631,0-8.405,1.912-8.405,4.256
			C70.051,49.311,73.825,51.221,78.456,51.221z"/>
		<path fill-rule="evenodd" clip-rule="evenodd" fill="none" stroke="#666766" stroke-width="4" stroke-miterlimit="22.9256" d="
			M73.889,48.686"/>
		<path fill-rule="evenodd" clip-rule="evenodd" fill="none" stroke="#666766" stroke-width="4" stroke-miterlimit="22.9256" d="
			M18.285,94.08l0.068-40.217"/>
	</g>
</g>
</svg>
