<?xml version="1.0" encoding="utf-8"?>
<!-- Generator: Adobe Illustrator 15.0.0, SVG Export Plug-In . SVG Version: 6.00 Build 0)  -->
<!DOCTYPE svg PUBLIC "-//W3C//DTD SVG 1.1//EN" "http://www.w3.org/Graphics/SVG/1.1/DTD/svg11.dtd">
<svg version="1.1" id="Camada_1" xmlns="http://www.w3.org/2000/svg" xmlns:xlink="http://www.w3.org/1999/xlink" x="0px" y="0px"
	 width="156.5px" height="156.504px" viewBox="583.666 0 156.5 156.504" enable-background="new 583.666 0 156.5 156.504"
	 xml:space="preserve">
<g>
	<g>
		<g>
			<path fill="#666766" d="M848.096,98.791c-0.926-8.538-6.369-15.33-8.89-23.386c-2.59-8.277-5.357-24.533,7.39-24.932
				c1.93-0.061,1.936-3.061,0-3c-9.279,0.29-12.875,7.844-12.633,16.438c0.155,5.502,1.824,11.02,3.646,16.166
				c2.282,6.449,6.728,11.709,7.487,18.715C845.302,100.693,848.304,100.712,848.096,98.791L848.096,98.791z"/>
		</g>
	</g>
	<g>
		<g>
			<path fill="#666766" d="M835.852,71.839c2.668-10.222-12.554-16.607-16.062-5.419c-4.263,13.588,10.246,26.2,19.971,32.777
				c1.607,1.088,3.106-1.513,1.514-2.59c-6.641-4.492-12.628-9.865-16.684-16.862c-1.825-3.148-2.396-6.72-2.268-10.3
				c0.316-8.845,12.769-6.571,10.637,1.597C832.47,72.916,835.363,73.709,835.852,71.839L835.852,71.839z"/>
		</g>
	</g>
	<g>
		<g>
			<path fill="#666766" d="M802.203,82.792c-1.15-3.933,1.334-6.842,5.24-6.927c3.161-0.069,5.98,2.33,8.055,4.397
				c2.783,2.774,5.07,5.922,7.993,8.588c5.088,4.641,11.115,8.157,17.548,10.549c1.816,0.676,2.594-2.225,0.797-2.893
				c-6.599-2.453-12.336-6.232-17.529-10.968c-4.126-3.764-6.863-8.656-11.905-11.352c-7.06-3.774-15.504,1.158-13.091,9.402
				C799.853,85.442,802.748,84.653,802.203,82.792L802.203,82.792z"/>
		</g>
	</g>
	<g>
		<g>
			<path fill="#666766" d="M821.263,98.237c-0.089-0.139,0.059-0.497,0.327-0.275c0.536,0.443,0.666,0.946,0.501,1.603
				c-0.473,1.87-2.595,1.672-3.821,0.911c-0.599-0.371-1.56-1.287-1.836-1.984c-0.327-0.823,0.316-2.193,0.538-2.966
				c0.534-1.863-2.36-2.653-2.893-0.797c-0.379,1.321-0.86,2.76-0.629,4.15c0.159,0.958,0.769,1.677,1.37,2.401
				c2.084,2.508,5.711,4.015,8.465,1.558c2.429-2.166,2.576-5.953-0.484-7.66c-2.727-1.521-5.743,2.087-4.128,4.573
				C819.722,101.367,822.32,99.865,821.263,98.237L821.263,98.237z"/>
		</g>
	</g>
	<g>
		<g>
			<path fill="#666766" d="M832.241,69.33c-0.588-2.228-2.793-2.654-4.683-1.771c-2.224,1.039-2.146,4.108-0.918,5.86
				c1.613,2.299,4.956,2.076,7.083,0.699c2.379-1.54,2.738-4.698,2.35-7.255c-0.29-1.907-3.181-1.094-2.893,0.798
				c0.326,2.144-0.443,4.404-2.89,4.51c-1,0.043-1.666-0.786-1.516-1.767c0.027-0.18,0.298-0.257,0.438-0.305
				c0.304-0.104,0.068-0.225,0.136,0.028C829.842,71.996,832.735,71.203,832.241,69.33L832.241,69.33z"/>
		</g>
	</g>
	<g>
		<g>
			<path fill="#666766" d="M797.057,87.143c-0.108,0.298-0.071,0.36,0.112,0.189c0.149-0.094,0.396,0.039,0.261-0.077
				c0.973,0.835,0.25,1.797-0.576,2.29c-1.588,0.948-3.101-0.589-3.859-1.854c-0.993-1.657-3.587-0.149-2.59,1.514
				c1.215,2.027,3.197,3.724,5.682,3.612c2.532-0.114,4.653-2.115,4.829-4.615c0.152-2.18-1.954-4.215-4.08-3.861
				c-2.181,0.363-3.236,2.329-2.368,4.315C795.239,90.426,797.823,88.897,797.057,87.143L797.057,87.143z"/>
		</g>
	</g>
	<g>
		<g>
			<path fill="#666766" d="M806.187,80.206c-0.108,0.299-0.071,0.362,0.112,0.191c0.15-0.094,0.396,0.039,0.262-0.077
				c0.973,0.835,0.25,1.796-0.576,2.289c-1.588,0.948-3.1-0.588-3.859-1.853c-0.994-1.656-3.588-0.149-2.59,1.514
				c1.216,2.026,3.197,3.725,5.682,3.611c2.531-0.115,4.654-2.113,4.829-4.614c0.152-2.181-1.955-4.214-4.081-3.861
				c-2.18,0.362-3.237,2.327-2.368,4.313C804.37,83.488,806.954,81.959,806.187,80.206L806.187,80.206z"/>
		</g>
	</g>
	<g>
		<g>
			<path fill="#666766" d="M787.361,94.695c-0.403-0.197-0.121,0.325-0.014-0.05c0.024-0.087,0.165-0.23,0.252-0.26
				c0.426-0.146,1.05,0.583,1.09,1.057c0.22,2.606-2.711,2.782-4.477,2.154c-1.827-0.65-2.606,2.249-0.797,2.893
				c2.306,0.82,5.016,0.685,6.783-1.166c1.561-1.635,2.117-4.594,0.566-6.408c-1.379-1.615-3.812-2.027-5.414-0.555
				c-1.494,1.373-1.402,4,0.496,4.925C787.579,98.128,789.101,95.542,787.361,94.695L787.361,94.695z"/>
		</g>
	</g>
	<g>
		<g>
			<path fill="#666766" d="M816.787,96.216c2.137-7.08,10.023-3.593,14.246-1.009c3.166,1.938,6.443,3.171,10.006,4.191
				c1.863,0.534,2.653-2.36,0.797-2.893c-3.81-1.092-7.168-2.592-10.544-4.657c-2.127-1.302-4.827-2.896-7.413-2.962
				c-4.464-0.113-8.646,2.098-9.984,6.532C813.334,97.276,816.23,98.064,816.787,96.216L816.787,96.216z"/>
		</g>
	</g>
	<g>
		<g>
			<path fill="#666766" d="M793.146,88.05c-1.634-2.609-0.179-4.412,4.365-5.409c1.058,0.654,2.011,1.431,2.862,2.329
				c1.901,1.833,3.351,4.182,4.957,6.271c2.483,3.232,5.454,5.47,8.978,7.449c1.688,0.949,3.2-1.643,1.514-2.59
				c-4.763-2.676-7.682-6.076-10.937-10.39c-1.744-2.311-4.412-5.698-7.467-6.392c-6.028-1.368-9.379,4.172-7.165,9.527
				C790.98,90.609,793.885,89.838,793.146,88.05L793.146,88.05z"/>
		</g>
	</g>
	<g>
		<g>
			<path fill="#666766" d="M784.559,97.804c-1.972-2.027-0.99-5.236,0.472-7.122c2.77-3.57,5.915,0.918,7.34,2.688
				c2.65,3.295,5.456,5.343,9.319,7.008c1.757,0.758,3.286-1.826,1.514-2.59c-4.424-1.908-7.049-4.609-10.087-8.206
				c-1.524-1.805-4.321-3.883-6.872-3.024c-5.223,1.756-7.905,9.154-3.807,13.367C783.788,101.314,785.908,99.191,784.559,97.804
				L784.559,97.804z"/>
		</g>
	</g>
	<g>
		<g>
			<path fill="#666766" d="M848.096,98.791c0.703-6.487,4.518-11.467,6.921-17.333c2.103-5.13,3.438-10.522,4.094-16.022
				c1.068-8.961-2.789-17.658-12.515-17.962c-1.936-0.061-1.93,2.939,0,3c12.284,0.384,9.987,15.385,7.783,23.581
				c-2.32,8.627-8.308,15.736-9.283,24.737C844.888,100.712,847.89,100.693,848.096,98.791L848.096,98.791z"/>
		</g>
	</g>
	<g>
		<g>
			<path fill="#666766" d="M860.231,71.042c-1.705-6.532,8.003-11.078,10.277-3.824c1.287,4.103-0.072,8.855-1.907,12.527
				c-3.507,7.019-10.334,12.566-16.685,16.862c-1.593,1.077-0.094,3.678,1.514,2.59c10.717-7.247,22.864-18.514,19.972-32.777
				c-2.344-11.55-18.721-4.76-16.063,5.419C857.827,73.709,860.721,72.916,860.231,71.042L860.231,71.042z"/>
		</g>
	</g>
	<g>
		<g>
			<path fill="#666766" d="M893.88,83.589c2.415-8.244-6.032-13.177-13.09-9.402c-4.979,2.662-7.958,7.475-11.906,11.352
				c-4.929,4.838-11.08,8.57-17.529,10.968c-1.797,0.668-1.021,3.568,0.797,2.893c6.537-2.43,12.247-6.038,17.549-10.549
				c2.998-2.552,5.369-5.679,7.992-8.588c1.577-1.749,3.439-3.006,5.62-3.884c4.421-1.779,9.157,1.353,7.675,6.414
				C890.442,84.653,893.338,85.442,893.88,83.589L893.88,83.589z"/>
		</g>
	</g>
	<g>
		<g>
			<path fill="#666766" d="M874.518,99.75c1.651-2.543-1.06-5.42-3.77-4.725c-1.365,0.351-2.359,1.965-2.663,3.233
				c-0.383,1.595,0.438,3.132,1.477,4.271c2.543,2.79,6.446,1.446,8.612-1.013c0.639-0.725,1.269-1.479,1.531-2.426
				c0.388-1.393-0.214-3.042-0.593-4.363c-0.532-1.856-3.427-1.066-2.893,0.797c0.228,0.793,0.734,1.918,0.593,2.769
				c-0.109,0.657-0.99,1.376-1.421,1.801c-1.244,1.229-2.965,1.397-4.054-0.09c-0.396-0.543-0.454-1.198-0.034-1.739
				c0.292-0.378,0.86-0.393,0.624-0.028C870.87,99.865,873.469,101.367,874.518,99.75L874.518,99.75z"/>
		</g>
	</g>
	<g>
		<g>
			<path fill="#666766" d="M863.842,70.127c0.105-0.398-0.163-0.053,0.018-0.058c0.144-0.004,0.416,0.119,0.503,0.233
				c0.555,0.725-0.494,1.677-1.081,1.84c-2.649,0.734-3.562-2.575-3.271-4.482c0.289-1.892-2.602-2.705-2.893-0.798
				c-0.382,2.498-0.058,5.337,2.045,7.021c2.034,1.628,5.295,1.832,7.152-0.161c1.521-1.63,1.577-4.79-0.453-6.024
				c-1.868-1.135-4.312-0.649-4.913,1.631C860.455,71.203,863.349,71.996,863.842,70.127L863.842,70.127z"/>
		</g>
	</g>
	<g>
		<g>
			<path fill="#666766" d="M898.725,88.657c0.85-1.945-0.081-3.659-2.085-4.268c-2.486-0.755-4.112,1.678-4.363,3.813
				c-0.281,2.392,2.385,4.242,4.43,4.562c2.615,0.407,4.814-1.446,6.08-3.559c0.997-1.663-1.597-3.171-2.59-1.514
				c-0.826,1.378-2.188,2.651-3.859,1.854c-0.723-0.346-1.282-1.029-0.897-1.841c0.257-0.543,0.191-0.458,0.402-0.423
				c0.47,0.078,0.116,0.266,0.293-0.139C895.369,88.898,897.953,90.426,898.725,88.657L898.725,88.657z"/>
		</g>
	</g>
	<g>
		<g>
			<path fill="#666766" d="M889.595,81.719c0.851-1.945-0.082-3.658-2.086-4.266c-2.486-0.754-4.111,1.677-4.363,3.813
				c-0.282,2.393,2.386,4.241,4.43,4.561c2.615,0.409,4.813-1.445,6.08-3.558c0.998-1.663-1.597-3.17-2.59-1.514
				c-0.827,1.378-2.188,2.65-3.859,1.853c-0.724-0.345-1.283-1.028-0.897-1.841c0.257-0.542,0.191-0.457,0.402-0.422
				c0.471,0.078,0.116,0.266,0.294-0.141C886.238,81.959,888.822,83.489,889.595,81.719L889.595,81.719z"/>
		</g>
	</g>
	<g>
		<g>
			<path fill="#666766" d="M907.343,97.285c1.876-0.914,1.922-3.281,0.656-4.74c-1.48-1.707-3.857-1.246-5.388,0.15
				c-1.8,1.645-1.183,4.675,0.168,6.362c1.686,2.105,4.599,2.284,6.995,1.432c1.81-0.644,1.03-3.543-0.797-2.893
				c-1.796,0.639-4.204,0.542-4.47-1.825c-0.094-0.842,0.38-1.182,1.123-1.363c-0.033,0.008,0.082,0.055,0.152,0.156
				c0.078,0.086,0.119,0.189,0.125,0.311c-0.065-0.23,0.479-0.452-0.079-0.18C904.09,95.542,905.611,98.128,907.343,97.285
				L907.343,97.285z"/>
		</g>
	</g>
	<g>
		<g>
			<path fill="#666766" d="M879.296,95.419c-1.338-4.435-5.52-6.646-9.984-6.532c-2.62,0.067-5.239,1.685-7.413,2.962
				c-3.419,2.008-6.718,3.561-10.544,4.657c-1.856,0.532-1.066,3.427,0.797,2.893c3.572-1.023,6.821-2.271,10.006-4.191
				c4.233-2.553,12.103-6.094,14.246,1.009C876.961,98.064,879.856,97.276,879.296,95.419L879.296,95.419z"/>
		</g>
	</g>
	<g>
		<g>
			<path fill="#666766" d="M902.938,88.847c1.608-3.889-0.171-11.114-5.851-9.825c-3.758,0.853-6.205,3.462-8.546,6.386
				c-3.477,4.342-6.236,7.92-11.172,10.693c-1.687,0.947-0.175,3.539,1.514,2.59c3.447-1.936,6.21-4.091,8.743-7.146
				c1.425-1.719,2.687-3.58,4.082-5.323c0.628-0.773,1.312-1.492,2.051-2.158c2.955-2.849,7.846,0.214,6.286,3.986
				C899.306,89.837,902.209,90.609,902.938,88.847L902.938,88.847z"/>
		</g>
	</g>
	<g>
		<g>
			<path fill="#666766" d="M910.754,99.925c3.404-3.501,2.156-11.362-2.818-13.035c-2.812-0.946-4.967-0.01-7.108,1.895
				c-1.362,1.211-2.42,2.849-3.611,4.223c-1.985,2.289-4.494,3.603-7.229,4.781c-1.772,0.764-0.243,3.348,1.514,2.59
				c3.537-1.524,6.151-3.309,8.685-6.229c1.332-1.536,2.411-3.146,4.125-4.311c4.223-2.871,6.669,5.552,4.322,7.965
				C907.284,99.191,909.403,101.314,910.754,99.925L910.754,99.925z"/>
		</g>
	</g>
	<g>
		<path fill="#666766" stroke="#666766" stroke-linecap="round" stroke-linejoin="round" stroke-miterlimit="22.9256" d="
			M840.551,60.142h-0.05l-2.88,1.554l-0.432-1.708l3.617-1.936h1.91v16.561h-2.166V60.142z"/>
		<path fill="#666766" stroke="#666766" stroke-linecap="round" stroke-linejoin="round" stroke-miterlimit="22.9256" d="
			M855.146,59.937h-6.318l-0.636,4.256c0.382-0.051,0.738-0.103,1.35-0.103c1.274,0,2.548,0.281,3.567,0.893
			c1.299,0.738,2.37,2.166,2.37,4.254c0,3.235-2.574,5.656-6.166,5.656c-1.811,0-3.339-0.51-4.127-1.018l0.559-1.708
			c0.689,0.408,2.038,0.916,3.542,0.916c2.115,0,3.924-1.376,3.924-3.592c-0.026-2.14-1.453-3.669-4.766-3.669
			c-0.942,0-1.679,0.102-2.293,0.179l1.071-7.949h7.923V59.937z"/>
	</g>
	
		<path fill="#FFFFFF" stroke="#666766" stroke-width="4" stroke-linecap="round" stroke-linejoin="round" stroke-miterlimit="22.9256" d="
		M902.558,95.648c-11.171,1.891-32.082,3.195-55.995,3.195c-23.882,0-44.765-1.268-55.963-3.162
		c-5.497-0.93-8.611-2.043-8.611-3.195v2.365v3.959l-0.033,2.396c0,3.4,29.013,6.324,64.607,6.324c35.682,0,64.64-2.865,64.64-6.357
		V98.81v-3.959v-2.365C911.202,93.638,908.055,94.718,902.558,95.648z"/>
	<g>
		<circle fill="#666766" cx="849.558" cy="103.226" r="1.562"/>
		<circle fill="#666766" cx="856.539" cy="103.226" r="1.561"/>
		<circle fill="#666766" cx="863.519" cy="103.027" r="1.561"/>
		<circle fill="#666766" cx="870.528" cy="102.656" r="1.562"/>
		<circle fill="#666766" cx="877.481" cy="102.439" r="1.561"/>
		<circle fill="#666766" cx="884.461" cy="102.023" r="1.561"/>
		<circle fill="#666766" cx="891.442" cy="101.466" r="1.562"/>
		<circle fill="#666766" cx="898.423" cy="100.462" r="1.562"/>
		<circle fill="#666766" cx="905.403" cy="99.093" r="1.561"/>
		<circle fill="#666766" cx="843.596" cy="103.162" r="1.561"/>
		<circle fill="#666766" cx="836.615" cy="103.162" r="1.561"/>
		<circle fill="#666766" cx="829.634" cy="102.962" r="1.561"/>
		<circle fill="#666766" cx="822.625" cy="102.591" r="1.561"/>
		<circle fill="#666766" cx="815.673" cy="102.375" r="1.561"/>
		<circle fill="#666766" cx="808.692" cy="101.958" r="1.562"/>
		<circle fill="#666766" cx="801.712" cy="101.402" r="1.562"/>
		<circle fill="#666766" cx="794.731" cy="100.398" r="1.561"/>
		<circle fill="#666766" cx="787.75" cy="99.029" r="1.561"/>
	</g>
</g>
<g>
	<g>
		<path fill="#666766" d="M663.43,98.791c-0.926-8.538-6.369-15.33-8.89-23.386c-2.59-8.277-5.357-24.533,7.39-24.932
			c1.93-0.061,1.936-3.061,0-3c-9.279,0.29-12.875,7.844-12.633,16.438c0.155,5.502,1.824,11.02,3.646,16.166
			c2.282,6.449,6.728,11.709,7.487,18.715C660.636,100.693,663.638,100.712,663.43,98.791L663.43,98.791z"/>
	</g>
</g>
<g>
	<g>
		<path fill="#666766" d="M651.186,71.839c2.668-10.222-12.554-16.607-16.062-5.419c-4.263,13.588,10.246,26.2,19.971,32.777
			c1.607,1.088,3.106-1.513,1.514-2.59c-6.641-4.492-12.628-9.865-16.684-16.862c-1.825-3.148-2.396-6.72-2.268-10.3
			c0.316-8.845,12.769-6.571,10.637,1.597C647.804,72.916,650.697,73.709,651.186,71.839L651.186,71.839z"/>
	</g>
</g>
<g>
	<g>
		<path fill="#666766" d="M617.537,82.792c-1.15-3.933,1.334-6.842,5.24-6.927c3.161-0.069,5.98,2.33,8.055,4.397
			c2.783,2.774,5.07,5.922,7.993,8.588c5.088,4.641,11.115,8.157,17.548,10.549c1.816,0.676,2.594-2.225,0.797-2.893
			c-6.599-2.453-12.336-6.232-17.529-10.968c-4.126-3.764-6.863-8.656-11.905-11.352c-7.06-3.774-15.504,1.158-13.091,9.402
			C615.187,85.442,618.082,84.653,617.537,82.792L617.537,82.792z"/>
	</g>
</g>
<g>
	<g>
		<path fill="#666766" d="M636.597,98.237c-0.089-0.139,0.059-0.497,0.327-0.275c0.536,0.443,0.666,0.946,0.501,1.603
			c-0.473,1.87-2.595,1.672-3.821,0.911c-0.599-0.371-1.56-1.287-1.836-1.984c-0.327-0.823,0.316-2.193,0.538-2.966
			c0.534-1.863-2.36-2.653-2.893-0.797c-0.379,1.321-0.86,2.76-0.629,4.15c0.159,0.958,0.769,1.677,1.37,2.401
			c2.084,2.508,5.711,4.015,8.465,1.558c2.429-2.166,2.576-5.953-0.484-7.66c-2.727-1.521-5.743,2.087-4.128,4.573
			C635.056,101.367,637.654,99.865,636.597,98.237L636.597,98.237z"/>
	</g>
</g>
<g>
	<g>
		<path fill="#666766" d="M647.575,69.33c-0.588-2.228-2.793-2.654-4.683-1.771c-2.224,1.039-2.146,4.108-0.918,5.86
			c1.613,2.299,4.956,2.076,7.083,0.699c2.379-1.54,2.738-4.698,2.35-7.255c-0.29-1.907-3.181-1.094-2.893,0.798
			c0.326,2.144-0.443,4.404-2.89,4.51c-1,0.043-1.666-0.786-1.516-1.767c0.027-0.18,0.298-0.257,0.438-0.305
			c0.304-0.104,0.068-0.225,0.136,0.028C645.176,71.996,648.069,71.203,647.575,69.33L647.575,69.33z"/>
	</g>
</g>
<g>
	<g>
		<path fill="#666766" d="M612.391,87.143c-0.108,0.298-0.071,0.36,0.112,0.189c0.149-0.094,0.396,0.039,0.261-0.077
			c0.973,0.835,0.25,1.797-0.576,2.29c-1.588,0.948-3.101-0.589-3.859-1.854c-0.993-1.657-3.587-0.149-2.59,1.514
			c1.215,2.027,3.197,3.724,5.682,3.612c2.532-0.114,4.653-2.115,4.829-4.615c0.152-2.18-1.954-4.215-4.08-3.861
			c-2.181,0.363-3.236,2.329-2.368,4.315C610.573,90.426,613.157,88.897,612.391,87.143L612.391,87.143z"/>
	</g>
</g>
<g>
	<g>
		<path fill="#666766" d="M621.521,80.206c-0.108,0.299-0.071,0.362,0.112,0.191c0.15-0.094,0.396,0.039,0.262-0.077
			c0.973,0.835,0.25,1.796-0.576,2.289c-1.588,0.948-3.1-0.588-3.859-1.853c-0.994-1.656-3.588-0.149-2.59,1.514
			c1.216,2.026,3.197,3.725,5.682,3.611c2.531-0.115,4.654-2.113,4.829-4.614c0.152-2.181-1.955-4.214-4.081-3.861
			c-2.18,0.362-3.237,2.327-2.368,4.313C619.704,83.488,622.288,81.959,621.521,80.206L621.521,80.206z"/>
	</g>
</g>
<g>
	<g>
		<path fill="#666766" d="M602.695,94.695c-0.403-0.197-0.121,0.325-0.014-0.05c0.024-0.087,0.165-0.23,0.252-0.26
			c0.426-0.146,1.05,0.583,1.09,1.057c0.22,2.606-2.711,2.782-4.477,2.154c-1.827-0.65-2.606,2.249-0.797,2.893
			c2.306,0.82,5.016,0.685,6.783-1.166c1.561-1.635,2.117-4.594,0.566-6.408c-1.379-1.615-3.812-2.027-5.414-0.555
			c-1.494,1.373-1.402,4,0.496,4.925C602.913,98.128,604.435,95.542,602.695,94.695L602.695,94.695z"/>
	</g>
</g>
<g>
	<g>
		<path fill="#666766" d="M632.121,96.216c2.137-7.08,10.023-3.593,14.246-1.009c3.166,1.938,6.443,3.171,10.006,4.191
			c1.863,0.534,2.653-2.36,0.797-2.893c-3.81-1.092-7.168-2.592-10.544-4.657c-2.127-1.302-4.827-2.896-7.413-2.962
			c-4.464-0.113-8.646,2.098-9.984,6.532C628.668,97.276,631.564,98.064,632.121,96.216L632.121,96.216z"/>
	</g>
</g>
<g>
	<g>
		<path fill="#666766" d="M608.479,88.05c-1.634-2.609-0.179-4.412,4.365-5.409c1.058,0.654,2.011,1.431,2.862,2.329
			c1.901,1.833,3.351,4.182,4.957,6.271c2.483,3.232,5.454,5.47,8.978,7.449c1.688,0.949,3.2-1.643,1.514-2.59
			c-4.763-2.676-7.682-6.076-10.937-10.39c-1.744-2.311-4.412-5.698-7.467-6.392c-6.028-1.368-9.379,4.172-7.165,9.527
			C606.314,90.609,609.219,89.838,608.479,88.05L608.479,88.05z"/>
	</g>
</g>
<g>
	<g>
		<path fill="#666766" d="M599.893,97.804c-1.972-2.027-0.99-5.236,0.472-7.122c2.77-3.57,5.915,0.918,7.34,2.688
			c2.65,3.295,5.456,5.343,9.319,7.008c1.757,0.758,3.286-1.826,1.514-2.59c-4.424-1.908-7.049-4.609-10.087-8.206
			c-1.524-1.805-4.321-3.883-6.872-3.024c-5.223,1.756-7.905,9.154-3.807,13.367C599.122,101.314,601.242,99.191,599.893,97.804
			L599.893,97.804z"/>
	</g>
</g>
<g>
	<g>
		<path fill="#666766" d="M663.43,98.791c0.703-6.487,4.518-11.467,6.921-17.333c2.103-5.13,3.438-10.522,4.094-16.022
			c1.068-8.961-2.789-17.658-12.515-17.962c-1.936-0.061-1.93,2.939,0,3c12.284,0.384,9.987,15.385,7.783,23.581
			c-2.32,8.627-8.308,15.736-9.283,24.737C660.222,100.712,663.224,100.693,663.43,98.791L663.43,98.791z"/>
	</g>
</g>
<g>
	<g>
		<path fill="#666766" d="M675.565,71.042c-1.705-6.532,8.003-11.078,10.277-3.824c1.287,4.103-0.072,8.855-1.907,12.527
			c-3.507,7.019-10.334,12.566-16.685,16.862c-1.593,1.077-0.094,3.678,1.514,2.59c10.717-7.247,22.864-18.514,19.972-32.777
			c-2.344-11.55-18.721-4.76-16.063,5.419C673.161,73.709,676.055,72.916,675.565,71.042L675.565,71.042z"/>
	</g>
</g>
<g>
	<g>
		<path fill="#666766" d="M709.214,83.589c2.415-8.244-6.032-13.177-13.09-9.402c-4.979,2.662-7.958,7.475-11.906,11.352
			c-4.929,4.838-11.08,8.57-17.529,10.968c-1.797,0.668-1.021,3.568,0.797,2.893c6.537-2.43,12.247-6.038,17.549-10.549
			c2.998-2.552,5.369-5.679,7.992-8.588c1.577-1.749,3.439-3.006,5.62-3.884c4.421-1.779,9.157,1.353,7.675,6.414
			C705.776,84.653,708.672,85.442,709.214,83.589L709.214,83.589z"/>
	</g>
</g>
<g>
	<g>
		<path fill="#666766" d="M689.852,99.75c1.651-2.543-1.06-5.42-3.77-4.725c-1.365,0.351-2.359,1.965-2.663,3.233
			c-0.383,1.595,0.438,3.132,1.477,4.271c2.543,2.79,6.446,1.446,8.612-1.013c0.639-0.725,1.269-1.479,1.531-2.426
			c0.388-1.393-0.214-3.042-0.593-4.363c-0.532-1.856-3.427-1.066-2.893,0.797c0.228,0.793,0.734,1.918,0.593,2.769
			c-0.109,0.657-0.99,1.376-1.421,1.801c-1.244,1.229-2.965,1.397-4.054-0.09c-0.396-0.543-0.454-1.198-0.034-1.739
			c0.292-0.378,0.86-0.393,0.624-0.028C686.204,99.865,688.803,101.367,689.852,99.75L689.852,99.75z"/>
	</g>
</g>
<g>
	<g>
		<path fill="#666766" d="M679.176,70.127c0.105-0.398-0.163-0.053,0.018-0.058c0.144-0.004,0.416,0.119,0.503,0.233
			c0.555,0.725-0.494,1.677-1.081,1.84c-2.649,0.734-3.562-2.575-3.271-4.482c0.289-1.892-2.602-2.705-2.893-0.798
			c-0.382,2.498-0.058,5.337,2.045,7.021c2.034,1.628,5.295,1.832,7.152-0.161c1.521-1.63,1.577-4.79-0.453-6.024
			c-1.868-1.135-4.312-0.649-4.913,1.631C675.789,71.203,678.683,71.996,679.176,70.127L679.176,70.127z"/>
	</g>
</g>
<g>
	<g>
		<path fill="#666766" d="M714.059,88.657c0.85-1.945-0.081-3.659-2.085-4.268c-2.486-0.755-4.112,1.678-4.363,3.813
			c-0.281,2.392,2.385,4.242,4.43,4.562c2.615,0.407,4.814-1.446,6.08-3.559c0.997-1.663-1.597-3.171-2.59-1.514
			c-0.826,1.378-2.188,2.651-3.859,1.854c-0.723-0.346-1.282-1.029-0.897-1.841c0.257-0.543,0.191-0.458,0.402-0.423
			c0.47,0.078,0.116,0.266,0.293-0.139C710.703,88.898,713.287,90.426,714.059,88.657L714.059,88.657z"/>
	</g>
</g>
<g>
	<g>
		<path fill="#666766" d="M704.929,81.719c0.851-1.945-0.082-3.658-2.086-4.266c-2.486-0.754-4.111,1.677-4.363,3.813
			c-0.282,2.393,2.386,4.241,4.43,4.561c2.615,0.409,4.813-1.445,6.08-3.558c0.998-1.663-1.597-3.17-2.59-1.514
			c-0.827,1.378-2.188,2.65-3.859,1.853c-0.724-0.345-1.283-1.028-0.897-1.841c0.257-0.542,0.191-0.457,0.402-0.422
			c0.471,0.078,0.116,0.266,0.294-0.141C701.572,81.959,704.156,83.489,704.929,81.719L704.929,81.719z"/>
	</g>
</g>
<g>
	<g>
		<path fill="#666766" d="M722.677,97.285c1.876-0.914,1.922-3.281,0.656-4.74c-1.48-1.707-3.857-1.246-5.388,0.15
			c-1.8,1.645-1.183,4.675,0.168,6.362c1.686,2.105,4.599,2.284,6.995,1.432c1.81-0.644,1.03-3.543-0.797-2.893
			c-1.796,0.639-4.204,0.542-4.47-1.825c-0.094-0.842,0.38-1.182,1.123-1.363c-0.033,0.008,0.082,0.055,0.152,0.156
			c0.078,0.086,0.119,0.189,0.125,0.311c-0.065-0.23,0.479-0.452-0.079-0.18C719.424,95.542,720.945,98.128,722.677,97.285
			L722.677,97.285z"/>
	</g>
</g>
<g>
	<g>
		<path fill="#666766" d="M694.63,95.419c-1.338-4.435-5.52-6.646-9.984-6.532c-2.62,0.067-5.239,1.685-7.413,2.962
			c-3.419,2.008-6.718,3.561-10.544,4.657c-1.856,0.532-1.066,3.427,0.797,2.893c3.572-1.023,6.821-2.271,10.006-4.191
			c4.233-2.553,12.103-6.094,14.246,1.009C692.295,98.064,695.19,97.276,694.63,95.419L694.63,95.419z"/>
	</g>
</g>
<g>
	<g>
		<path fill="#666766" d="M718.271,88.847c1.608-3.889-0.171-11.114-5.851-9.825c-3.758,0.853-6.205,3.462-8.546,6.386
			c-3.477,4.342-6.236,7.92-11.172,10.693c-1.687,0.947-0.175,3.539,1.514,2.59c3.447-1.936,6.21-4.091,8.743-7.146
			c1.425-1.719,2.687-3.58,4.082-5.323c0.628-0.773,1.312-1.492,2.051-2.158c2.955-2.849,7.846,0.214,6.286,3.986
			C714.64,89.837,717.543,90.609,718.271,88.847L718.271,88.847z"/>
	</g>
</g>
<g>
	<g>
		<path fill="#666766" d="M726.088,99.925c3.404-3.501,2.156-11.362-2.818-13.035c-2.812-0.946-4.967-0.01-7.108,1.895
			c-1.362,1.211-2.42,2.849-3.611,4.223c-1.985,2.289-4.494,3.603-7.229,4.781c-1.772,0.764-0.243,3.348,1.514,2.59
			c3.537-1.524,6.151-3.309,8.685-6.229c1.332-1.536,2.411-3.146,4.125-4.311c4.223-2.871,6.669,5.552,4.322,7.965
			C722.618,99.191,724.737,101.314,726.088,99.925L726.088,99.925z"/>
	</g>
</g>
<path fill="#FFFFFF" stroke="#666766" stroke-width="4" stroke-linecap="round" stroke-linejoin="round" stroke-miterlimit="22.9256" d="
	M717.892,95.648c-11.171,1.891-32.082,3.195-55.995,3.195c-23.882,0-44.765-1.268-55.963-3.162c-5.497-0.93-8.611-2.043-8.611-3.195
	v2.365v3.959l-0.033,2.396c0,3.4,29.013,6.324,64.607,6.324c35.682,0,64.64-2.865,64.64-6.357V98.81v-3.959v-2.365
	C726.536,93.638,723.389,94.718,717.892,95.648z"/>
<g>
	<circle fill="#666766" cx="664.892" cy="103.226" r="1.562"/>
	<circle fill="#666766" cx="671.873" cy="103.226" r="1.561"/>
	<circle fill="#666766" cx="678.853" cy="103.027" r="1.561"/>
	<circle fill="#666766" cx="685.862" cy="102.656" r="1.562"/>
	<circle fill="#666766" cx="692.815" cy="102.439" r="1.561"/>
	<circle fill="#666766" cx="699.795" cy="102.023" r="1.561"/>
	<circle fill="#666766" cx="706.776" cy="101.466" r="1.562"/>
	<circle fill="#666766" cx="713.757" cy="100.462" r="1.562"/>
	<circle fill="#666766" cx="720.737" cy="99.093" r="1.561"/>
	<circle fill="#666766" cx="658.93" cy="103.162" r="1.561"/>
	<circle fill="#666766" cx="651.949" cy="103.162" r="1.561"/>
	<circle fill="#666766" cx="644.968" cy="102.962" r="1.561"/>
	<circle fill="#666766" cx="637.959" cy="102.591" r="1.561"/>
	<circle fill="#666766" cx="631.007" cy="102.375" r="1.561"/>
	<circle fill="#666766" cx="624.026" cy="101.958" r="1.562"/>
	<circle fill="#666766" cx="617.046" cy="101.402" r="1.562"/>
	<circle fill="#666766" cx="610.065" cy="100.398" r="1.561"/>
	<circle fill="#666766" cx="603.084" cy="99.029" r="1.561"/>
</g>
</svg>
