<?xml version="1.0" encoding="utf-8"?>
<!-- Generator: Adobe Illustrator 16.0.4, SVG Export Plug-In . SVG Version: 6.00 Build 0)  -->
<!DOCTYPE svg PUBLIC "-//W3C//DTD SVG 1.1//EN" "http://www.w3.org/Graphics/SVG/1.1/DTD/svg11.dtd">
<svg version="1.1" id="Camada_1" xmlns="http://www.w3.org/2000/svg" xmlns:xlink="http://www.w3.org/1999/xlink" x="0px" y="0px"
	 width="156.5px" height="154.501px" viewBox="0 0 156.5 154.501" enable-background="new 0 0 156.5 154.501" xml:space="preserve">
<rect fill="none" width="156.5" height="154.501"/>
<path fill="none" stroke="#666766" stroke-width="4" stroke-miterlimit="22.9256" d="M114.679,18.552c1.668,0,3.333,0,5,0
	c0.147,0.037,0.294,0.082,0.442,0.111c1.742,0.342,3.518,0.559,5.219,1.043c6.145,1.751,11.237,5.169,15.364,10.03
	c3.368,3.965,5.626,8.485,6.673,13.591c0.228,1.114,0.375,2.244,0.561,3.366c0,1.628,0,3.256,0,4.883
	c-0.156,0.931-0.281,1.867-0.471,2.791c-1.369,6.634-4.802,11.939-10.398,15.763c-4.791,3.273-10.155,4.621-15.935,4.396
	c-0.552-0.021-1.107-0.003-1.702-0.003c3.931,9.766,4.557,19.736,1.522,29.845c-3.038,10.129-9.021,18.166-17.776,24.067
	c-15.11,10.182-34.78,9.878-49.459-0.077c-7.307-4.955-12.75-11.496-16.108-19.659c-4.688-11.398-4.539-22.856,0.022-34.309
	c-0.168,0-0.303-0.013-0.434,0.002c-3.01,0.337-5.993,0.176-8.944-0.493c-5.603-1.27-10.337-4.029-13.952-8.504
	c-5.389-6.669-6.795-14.301-5.003-22.568c1.355-6.254,4.536-11.507,9.197-15.864c4.279-3.998,9.271-6.659,15.025-7.839
	c1.113-0.228,2.24-0.383,3.361-0.572c1.667,0,3.333,0,5,0c0.572,0.083,1.145,0.158,1.716,0.251
	c6.569,1.078,12.061,4.067,16.174,9.35c4.311,5.535,5.874,11.872,5.165,18.807c-0.087,0.857-0.229,1.708-0.35,2.603
	c9.114-2.902,18.207-2.947,27.353-0.164c-0.033-0.301-0.044-0.511-0.081-0.716c-0.726-4.088-0.597-8.157,0.639-12.116
	c2.866-9.19,9.045-14.953,18.367-17.324C112.115,18.924,113.406,18.777,114.679,18.552z"/>
</svg>
