<?xml version="1.0" encoding="utf-8"?>
<!-- Generator: Adobe Illustrator 16.0.4, SVG Export Plug-In . SVG Version: 6.00 Build 0)  -->
<!DOCTYPE svg PUBLIC "-//W3C//DTD SVG 1.1//EN" "http://www.w3.org/Graphics/SVG/1.1/DTD/svg11.dtd">
<svg version="1.1" id="Camada_1" xmlns="http://www.w3.org/2000/svg" xmlns:xlink="http://www.w3.org/1999/xlink" x="0px" y="0px"
	 width="156.5px" height="156.503px" viewBox="0 0 156.5 156.503" enable-background="new 0 0 156.5 156.503" xml:space="preserve">
<g>
	<rect y="0.001" fill="none" width="156.5" height="156.502"/>
	<g>
		<path fill-rule="evenodd" clip-rule="evenodd" fill="none" stroke="#666766" stroke-width="4" stroke-miterlimit="22.9256" d="
			M78.07,88.383c4.121-11.733,12.36-23.512,24.544-23.512c13.447,0,24.362,10.192,24.362,22.75
			c0,22.752-21.854,43.354-48.727,63.597c-27.946-19.885-48.727-40.845-48.727-63.597c0-12.558,10.914-22.75,24.363-22.75
			C66.068,64.871,73.771,76.829,78.07,88.383z"/>
		<path fill-rule="evenodd" clip-rule="evenodd" fill="none" stroke="#666766" stroke-width="4" stroke-miterlimit="22.9256" d="
			M91.789,67.56c0-5.705-2.645-8.965-7.494-12.214 M85.13,44.17c9.362,3.349,16.442,10.526,18.271,20.513 M72.205,55.346
			c-4.85,3.249-7.494,6.509-7.494,12.214 M53.1,64.683c1.828-9.986,8.908-17.164,18.271-20.513"/>
		<path fill-rule="evenodd" clip-rule="evenodd" fill="none" stroke="#666766" stroke-width="4" stroke-miterlimit="22.9256" d="
			M76.395,4.427h3.711c2.624,0,4.77,1.998,4.77,4.439v52.299c0,2.441-2.146,4.44-4.77,4.44h-3.711c-2.623,0-4.77-1.999-4.77-4.44
			V8.866C71.625,6.425,73.771,4.427,76.395,4.427z"/>
	</g>
</g>
</svg>
