<?xml version="1.0" encoding="utf-8"?>
<!-- Generator: Adobe Illustrator 16.0.0, SVG Export Plug-In . SVG Version: 6.00 Build 0)  -->
<!DOCTYPE svg PUBLIC "-//W3C//DTD SVG 1.1//EN" "http://www.w3.org/Graphics/SVG/1.1/DTD/svg11.dtd">
<svg version="1.1" id="Camada_1" xmlns="http://www.w3.org/2000/svg" xmlns:xlink="http://www.w3.org/1999/xlink" x="0px" y="0px"
	 width="156.5px" height="156.503px" viewBox="0 0 156.5 156.503" enable-background="new 0 0 156.5 156.503" xml:space="preserve">
<g>
	<g>
		<path fill="#666666" d="M37.645,119.523L37.645,119.523c-6.06,0-12.041-1.654-18.285-5.059
			c-7.274-3.598-14.5-14.317-16.036-23.862c-1.369-9.966-0.401-16.206,3.133-20.276c4.221-4.861,11.584-5.885,21.342-5.927
			c12.521,0.335,23.984,2.333,34.132,5.938c3.418,1.301,12.885,4.636,16.109,4.637c3.241,0,12.739-3.336,16.126-4.622
			c10.255-3.621,21.789-5.618,34.322-5.952c9.898,0.041,17.318,1.069,21.557,5.954c3.535,4.074,4.501,10.306,3.133,20.205
			c-1.552,9.589-8.82,20.31-16.213,23.944c-6.211,3.365-12.227,5.019-18.32,5.019c-5.941,0-12.111-1.592-18.861-4.866l-0.19-0.105
			c-8.331-5.23-12.987-13.459-16.114-20.041l-0.066-0.16c-1.432-3.84-4.479-4.139-5.377-4.139c-0.905,0-3.944,0.297-5.365,4.135
			l-0.066,0.158c-3.105,6.584-7.732,14.812-16.013,20.043l-0.19,0.106C49.688,117.929,43.554,119.523,37.645,119.523z
			 M27.754,68.398c-10.196,0.045-15.509,1.363-18.276,4.55C6.803,76.03,6.104,81.453,7.28,90.012
			c1.442,8.954,8.497,18.219,13.923,20.903c5.712,3.111,11.067,4.606,16.441,4.606c5.258,0,10.787-1.444,16.899-4.417
			c7.321-4.667,11.543-12.182,14.405-18.234c1.856-4.91,5.9-6.662,9.078-6.662c3.186,0,7.236,1.75,9.1,6.656
			c2.882,6.057,7.131,13.57,14.501,18.238c6.154,2.973,11.723,4.417,17.018,4.417c5.412,0,10.806-1.495,16.485-4.571
			c5.533-2.723,12.636-11.986,14.093-20.984c1.174-8.492,0.478-13.906-2.199-16.99c-2.781-3.207-8.139-4.532-18.488-4.576
			c-12.055,0.322-23.176,2.243-32.992,5.708c-1.271,0.484-12.949,4.866-17.501,4.866c-4.54-0.001-16.179-4.383-17.491-4.883
			C50.841,70.642,39.792,68.721,27.754,68.398z"/>
	</g>
	<g>
		<path fill="#666666" d="M145.335,71.455c-0.301-0.248-28.851-23.788-37.647-29.969c-0.643,1.427-1.463,4.395-1.97,7.27
			l-3.938-0.694c1.128-6.396,2.648-10.05,4.522-10.859c0.841-0.362,1.769-0.279,2.544,0.232c7.463,4.902,37.75,29.874,39.034,30.934
			L145.335,71.455z"/>
	</g>
	<g>
		<path fill="#666666" d="M11.123,71.455l-2.546-3.086c1.286-1.061,31.573-26.031,39.034-30.935c0.774-0.51,1.7-0.595,2.543-0.231
			c1.875,0.809,3.397,4.462,4.525,10.859l-3.939,0.695c-0.508-2.876-1.329-5.844-1.97-7.271
			C39.97,47.67,11.423,71.208,11.123,71.455z"/>
	</g>
</g>
</svg>
