<?xml version="1.0" encoding="utf-8"?>
<!-- Generator: Adobe Illustrator 16.0.0, SVG Export Plug-In . SVG Version: 6.00 Build 0)  -->
<!DOCTYPE svg PUBLIC "-//W3C//DTD SVG 1.1//EN" "http://www.w3.org/Graphics/SVG/1.1/DTD/svg11.dtd">
<svg version="1.1" id="Camada_1" xmlns="http://www.w3.org/2000/svg" xmlns:xlink="http://www.w3.org/1999/xlink" x="0px" y="0px"
	 width="156.5px" height="156.503px" viewBox="0 0 156.5 156.503" enable-background="new 0 0 156.5 156.503" xml:space="preserve">
<g>
	<g>
		<path fill="#666666" d="M133.068,148.114H23.431V67.621h109.637V148.114z M27.431,144.114h101.637V71.621H27.431V144.114z"/>
	</g>
	<g>
		<path fill="#666666" d="M107.756,50.077H48.744V8.389h59.012V50.077z M52.744,46.077h51.012V12.389H52.744V46.077z"/>
	</g>
	<g>
		<path fill="#666666" d="M103.252,83.651v1.285c-1.667,0.312-2.939,0.847-3.798,1.619c-1.228,1.144-2.321,2.905-3.274,5.274
			L79.74,132.083h-1.286L60.749,91.294c-0.905-2.107-1.548-3.396-1.917-3.857c-0.583-0.727-1.298-1.298-2.155-1.715
			c-0.845-0.404-1.988-0.667-3.429-0.786v-1.285H72.56v1.285c-2.191,0.215-3.607,0.584-4.263,1.12
			c-0.643,0.535-0.976,1.214-0.976,2.061c0,1.153,0.535,2.979,1.607,5.439l12.037,27.729L92.145,93.9
			c1.098-2.701,1.645-4.57,1.645-5.619c0-0.666-0.348-1.32-1.014-1.928c-0.678-0.62-1.819-1.061-3.416-1.311
			c-0.117-0.023-0.32-0.062-0.596-0.107V83.65L103.252,83.651L103.252,83.651z"/>
	</g>
	<g>
		<rect x="61.748" y="48.077" fill="#666666" width="4" height="21.544"/>
	</g>
	<g>
		<rect x="90.748" y="48.077" fill="#666666" width="4" height="21.544"/>
	</g>
</g>
</svg>
