<?xml version="1.0" encoding="utf-8"?>
<!-- Generator: Adobe Illustrator 16.0.0, SVG Export Plug-In . SVG Version: 6.00 Build 0)  -->
<!DOCTYPE svg PUBLIC "-//W3C//DTD SVG 1.1//EN" "http://www.w3.org/Graphics/SVG/1.1/DTD/svg11.dtd">
<svg version="1.1" id="Camada_1" xmlns="http://www.w3.org/2000/svg" xmlns:xlink="http://www.w3.org/1999/xlink" x="0px" y="0px"
	 width="156.5px" height="156.503px" viewBox="0 0 156.5 156.503" enable-background="new 0 0 156.5 156.503" xml:space="preserve">
<g>
	<g>
		<path fill="#000" d="M42.302,150.562c-19.408,0-35.198-15.789-35.198-35.197c0-18.916,32.371-53.129,33.749-54.576l1.448-1.521
			l1.448,1.521c1.378,1.447,33.75,35.66,33.75,54.576C77.499,134.773,61.709,150.562,42.302,150.562z M42.301,65.109
			c-6.328,6.915-31.197,35.059-31.197,50.256c0,17.202,13.995,31.197,31.198,31.197c17.202,0,31.197-13.995,31.197-31.197
			C73.499,100.167,48.629,72.023,42.301,65.109z"/>
	</g>
	<g>
		<rect x="40.302" y="32.645" fill="#000" width="4" height="29.834"/>
	</g>
	<g>
		<path fill="#000" d="M135.652,46.771l-3.312-2.241c0.945-1.398,1.445-3.033,1.445-4.729c0-4.661-3.792-8.453-8.453-8.453
			s-8.453,3.792-8.453,8.453c0,1.672,0.486,3.288,1.405,4.672l-3.332,2.213c-1.356-2.043-2.073-4.424-2.073-6.885
			c0-6.867,5.587-12.453,12.453-12.453s12.453,5.586,12.453,12.453C137.786,42.299,137.049,44.709,135.652,46.771z"/>
	</g>
	<g>
		<rect x="123.333" y="7.939" fill="#000" width="4" height="29.834"/>
	</g>
	<g>
		<path fill="#000" d="M139.156,137.714h-27.643c-5.648,0-10.244-4.596-10.244-10.243V54.246c0-5.648,4.596-10.244,10.244-10.244
			h27.643c5.646,0,10.24,4.596,10.24,10.244v73.225C149.396,133.121,144.803,137.714,139.156,137.714z M111.514,48.002
			c-3.443,0-6.244,2.801-6.244,6.244v73.225c0,3.442,2.801,6.243,6.244,6.243h27.644c3.44,0,6.239-2.801,6.239-6.243V54.246
			c0-3.443-2.799-6.244-6.239-6.244H111.514z"/>
	</g>
	<g>
		<path fill="#000" d="M42.302,131.814c-10.191,0-18.483-8.292-18.483-18.484c0-9.625,15.291-25.961,17.035-27.793l1.448-1.521
			l1.448,1.521c1.744,1.832,17.035,18.168,17.035,27.793C60.785,123.522,52.494,131.814,42.302,131.814z M42.302,89.861
			c-5.077,5.623-14.483,17.314-14.483,23.469c0,7.986,6.497,14.484,14.483,14.484c7.986,0,14.483-6.498,14.483-14.484
			C56.785,107.169,47.379,95.482,42.302,89.861z"/>
	</g>
	<g>
		<path fill="#000" d="M131.273,116.029H119.43c-3.05,0-5.531-2.809-5.531-6.26V71.947c0-1.597,0.531-3.119,1.498-4.284
			c1.039-1.254,2.511-1.974,4.033-1.974h11.844c3.051,0,5.531,2.807,5.531,6.258v37.822
			C136.805,113.22,134.323,116.029,131.273,116.029z M119.43,69.689c-0.451,0-0.791,0.331-0.955,0.528
			c-0.367,0.441-0.576,1.071-0.576,1.729v37.824c0,1.332,0.808,2.26,1.531,2.26h11.844c0.726,0,1.531-0.928,1.531-2.26V71.947
			c0-1.331-0.807-2.258-1.531-2.258H119.43z"/>
	</g>
	<g>
		<g>
			
				<rect x="136.345" y="47.565" transform="matrix(-0.9101 -0.4143 0.4143 -0.9101 239.9715 169.2937)" fill="#000" width="4" height="22.115"/>
		</g>
		<g>
			
				<rect x="101.297" y="56.621" transform="matrix(-0.4143 -0.9101 0.9101 -0.4143 105.5512 185.1655)" fill="#000" width="22.114" height="4"/>
		</g>
	</g>
	<g>
		<g>
			
				<rect x="127.3" y="121.62" transform="matrix(-0.4143 -0.9101 0.9101 -0.4143 83.1687 300.76)" fill="#000" width="22.114" height="3.999"/>
		</g>
		<g>
			
				<rect x="110.347" y="112.564" transform="matrix(-0.9102 -0.4141 0.4141 -0.9102 163.4183 282.6667)" fill="#000" width="4" height="22.114"/>
		</g>
	</g>
</g>
</svg>
