<?xml version="1.0" encoding="utf-8"?>
<!-- Generator: Adobe Illustrator 16.0.0, SVG Export Plug-In . SVG Version: 6.00 Build 0)  -->
<!DOCTYPE svg PUBLIC "-//W3C//DTD SVG 1.1//EN" "http://www.w3.org/Graphics/SVG/1.1/DTD/svg11.dtd">
<svg version="1.1" id="Camada_1" xmlns="http://www.w3.org/2000/svg" xmlns:xlink="http://www.w3.org/1999/xlink" x="0px" y="0px"
	 width="156.5px" height="156.503px" viewBox="0 0 156.5 156.503" enable-background="new 0 0 156.5 156.503" xml:space="preserve">
<g>
	<g>
		<path fill="#666666" d="M78.25,58.318c-14.655,0-26.579-11.923-26.579-26.579c0-14.656,11.924-26.578,26.579-26.578
			c14.654,0,26.578,11.923,26.578,26.579C104.828,46.396,92.904,58.318,78.25,58.318z M78.25,8.984
			c-12.547,0-22.755,10.208-22.755,22.755c0,12.547,10.208,22.756,22.755,22.756c12.548,0,22.756-10.208,22.756-22.755
			C101.006,19.193,90.798,8.984,78.25,8.984z"/>
	</g>
	<g>
		<rect x="76.437" y="56.408" fill="#666666" width="3.625" height="16.332"/>
	</g>
	<g>
		<path fill="#666666" d="M50.751,152.921l5.252-30.619l-22.248-21.688L64.5,96.149L78.25,68.29L92,96.149l30.744,4.468
			l-22.247,21.687l5.251,30.62L78.25,138.466L50.751,152.921z M78.25,134.148l22.42,11.786l-4.279-24.966l18.139-17.684
			l-25.067-3.643L78.25,76.928L67.04,99.643l-25.069,3.644l18.141,17.682l-4.282,24.967L78.25,134.148z"/>
	</g>
	<g>
		<path fill="#666666" d="M78.25,46.074c-7.904,0-14.334-6.43-14.334-14.334c0-7.904,6.43-14.334,14.334-14.334
			c7.902,0,14.334,6.43,14.334,14.334C92.584,39.644,86.152,46.074,78.25,46.074z M78.25,21.406
			c-5.698,0-10.334,4.636-10.334,10.334c0,5.698,4.636,10.334,10.334,10.334s10.334-4.636,10.334-10.334
			C88.584,26.042,83.948,21.406,78.25,21.406z"/>
	</g>
</g>
</svg>
