<?xml version="1.0" encoding="utf-8"?>
<!-- Generator: Adobe Illustrator 16.0.0, SVG Export Plug-In . SVG Version: 6.00 Build 0)  -->
<!DOCTYPE svg PUBLIC "-//W3C//DTD SVG 1.1//EN" "http://www.w3.org/Graphics/SVG/1.1/DTD/svg11.dtd">
<svg version="1.1" id="Camada_1" xmlns="http://www.w3.org/2000/svg" xmlns:xlink="http://www.w3.org/1999/xlink" x="0px" y="0px"
	 width="156.5px" height="156.503px" viewBox="0 0 156.5 156.503" enable-background="new 0 0 156.5 156.503" xml:space="preserve">
<g>
	<g>
		<g>
			<path fill="#666666" d="M44.668,140.701L44.668,140.701c-2.349,0-3.49-1.316-4.934-2.984c-0.338-0.391-0.723-0.836-1.18-1.336
				L7.136,101.32l-0.5-0.604c-2.111-2.559-3.506-4.248-3.651-8.862L2.984,50.018c-0.257-6.667-0.1-10.869,6.134-12.198
				l91.224-21.384c1.596-0.379,2.903-0.633,4.088-0.633c2.297,0,3.748,0.977,5.551,2.358l36.479,27.458
				c6.899,4.772,7.489,5.759,6.942,11.683l-0.01,0.113l-1.891,43.114c-0.045,0.557-0.078,1.021-0.111,1.475
				c-0.289,4.025-0.617,8.586-5.994,9.494l-94.784,27.959C47.722,140.253,46.038,140.701,44.668,140.701z M104.43,19.803
				c-0.672,0-1.619,0.157-3.168,0.526L9.992,41.723c-2.729,0.582-3.288,0.957-3.009,8.218l0.001,41.85
				c0.101,3.185,0.765,3.988,2.737,6.379l0.451,0.547l31.35,34.979c0.472,0.519,0.879,0.988,1.236,1.4
				c1.389,1.604,1.479,1.604,1.91,1.604l0,0c0.834,0,2.387-0.414,4.846-1.093l95-28.022l0.133-0.021
				c2.143-0.332,2.436-1.405,2.756-5.853c0.033-0.469,0.068-0.949,0.109-1.44l1.907-43.338c0.382-4.141,0.382-4.141-5.301-8.073
				l-36.558-27.515C105.9,20.075,105.348,19.803,104.43,19.803z"/>
		</g>
		<g>
			<path fill="#666666" d="M45.235,82.429c-1.878,0-3.409-0.801-5.115-2.543L5.294,44.035l2.869-2.787l34.82,35.846
				c1.467,1.499,2.006,1.626,4.111,0.965L150.432,50.36l1.034,3.863L48.211,81.898C47.104,82.248,46.129,82.429,45.235,82.429z"/>
		</g>
		<g>
			<path fill="#666666" d="M100.098,95.27h-0.285c-2.545,0-4.617-2.071-4.617-4.618v-8.806c0-2.438,1.898-4.44,4.295-4.607
				l15.064-4.375h0.284c2.548,0,4.618,2.072,4.618,4.619v8.806c0.001,1.232-0.479,2.394-1.352,3.266
				c-0.797,0.797-1.832,1.267-2.943,1.343L100.098,95.27z M99.812,81.228c-0.34,0-0.617,0.277-0.617,0.618v8.806
				c0,0.276,0.183,0.512,0.433,0.59l14.929-4.334h0.284c0.341,0,0.618-0.277,0.618-0.619l-0.001-8.806
				c0-0.276-0.183-0.511-0.433-0.59l-14.928,4.335H99.812z"/>
		</g>
		<g>
			<path fill="#666666" d="M58.542,65.622L36.233,43.933l61.636-14.275l25.008,18.69L58.542,65.622z M44.278,46.175L59.7,61.168
				l54.185-14.547L96.963,33.974L44.278,46.175z"/>
		</g>
	</g>
	<g>
		
			<rect x="86.498" y="69.307" transform="matrix(-1 -0.0034 0.0034 -1 176.6625 195.1994)" fill="#666666" width="4" height="56.284"/>
	</g>
	<g>
		<path fill="#666666" d="M110.962,119.804l-4-0.031l0.228-29.312l4,0.031L110.962,119.804z M111.863,74.609l-4-0.011l0.029-11.378
			l4,0.011L111.863,74.609z"/>
	</g>
</g>
</svg>
