<?xml version="1.0" encoding="utf-8"?>
<!-- Generator: Adobe Illustrator 16.0.0, SVG Export Plug-In . SVG Version: 6.00 Build 0)  -->
<!DOCTYPE svg PUBLIC "-//W3C//DTD SVG 1.1//EN" "http://www.w3.org/Graphics/SVG/1.1/DTD/svg11.dtd">
<svg version="1.1" id="Camada_1" xmlns="http://www.w3.org/2000/svg" xmlns:xlink="http://www.w3.org/1999/xlink" x="0px" y="0px"
	 width="156.5px" height="156.503px" viewBox="0 0 156.5 156.503" enable-background="new 0 0 156.5 156.503" xml:space="preserve">
<g>
	<g>
		<g>
			<path fill="#000" d="M44.669,140.201C44.668,140.201,44.668,140.201,44.669,140.201c-2.349,0-3.49-1.316-4.934-2.984
				c-0.338-0.391-0.723-0.834-1.181-1.336L7.136,100.818l-0.504-0.609c-2.108-2.555-3.501-4.242-3.646-8.854L2.984,50.518
				c-0.257-6.667-0.1-10.869,6.134-12.198l91.223-21.385c1.595-0.379,2.903-0.633,4.087-0.633c2.299,0,3.75,0.977,5.553,2.358
				l36.479,27.458c6.9,4.771,7.49,5.758,6.943,11.684l-0.01,0.111l-1.892,42.115c-0.045,0.554-0.078,1.019-0.11,1.47
				c-0.289,4.028-0.617,8.59-5.994,9.5l-94.784,27.957C47.722,139.753,46.039,140.201,44.669,140.201z M104.428,20.302
				c-0.671,0-1.617,0.157-3.168,0.526L9.992,42.223c-2.729,0.582-3.288,0.957-3.009,8.218l0.001,40.85
				c0.101,3.184,0.764,3.985,2.732,6.371l0.456,0.553l31.35,34.981c0.472,0.519,0.88,0.988,1.237,1.4
				c1.388,1.603,1.478,1.603,1.91,1.603c0.835,0,2.388-0.412,4.846-1.091l94.999-28.022l0.131-0.021
				c2.146-0.332,2.438-1.405,2.756-5.854c0.035-0.469,0.068-0.948,0.109-1.439l1.909-42.335c0.382-4.143,0.382-4.143-5.302-8.075
				l-36.557-27.516C105.9,20.574,105.348,20.302,104.428,20.302z"/>
		</g>
		<g>
			<path fill="#000" d="M45.233,82.929c-1.878,0-3.409-0.801-5.114-2.545L5.294,44.535l2.869-2.787l34.82,35.846
				c1.469,1.501,2.007,1.628,4.11,0.965L98.719,64.47l0.506,1.854l-0.488-1.859l51.701-13.608l1.018,3.868L99.771,68.33
				L48.22,82.396C47.107,82.748,46.13,82.929,45.233,82.929z"/>
		</g>
		<g>
			
				<rect x="86.498" y="69.439" transform="matrix(-1 -0.0034 0.0034 -1 176.662 195.465)" fill="#000" width="4" height="56.285"/>
		</g>
		<g>
			<path fill="#000" d="M110.961,119.937l-4-0.031l0.229-29.312l4,0.031L110.961,119.937z M111.863,74.741l-4-0.01l0.029-11.378
				l4,0.01L111.863,74.741z"/>
		</g>
	</g>
	<g>
		<path fill="#000" d="M99.543,95.137h-0.284c-2.547,0-4.618-2.071-4.618-4.618v-8.807c0-2.438,1.898-4.439,4.295-4.606
			l15.065-4.376h0.284c2.546,0,4.617,2.072,4.617,4.619v8.806c0,2.438-1.898,4.44-4.295,4.607L99.543,95.137z M99.259,81.095
			c-0.341,0-0.618,0.277-0.618,0.617v8.807c0,0.275,0.183,0.511,0.433,0.59l14.929-4.336h0.284c0.34,0,0.616-0.277,0.616-0.618
			v-8.806c0-0.276-0.182-0.511-0.432-0.59l-14.928,4.336H99.259z"/>
	</g>
	<g>
		
			<rect x="42.75" y="48.05" transform="matrix(-0.6968 -0.7173 0.7173 -0.6968 81.4376 134.5253)" fill="#000" width="52.806" height="4"/>
	</g>
	<g>
		
			<rect x="64.751" y="42.05" transform="matrix(-0.6968 -0.7173 0.7173 -0.6968 123.0704 140.1263)" fill="#000" width="52.804" height="4"/>
	</g>
</g>
</svg>
