<?xml version="1.0" encoding="utf-8"?>
<!-- Generator: Adobe Illustrator 18.1.1, SVG Export Plug-In . SVG Version: 6.00 Build 0)  -->
<svg version="1.1" id="Layer_1" xmlns="http://www.w3.org/2000/svg" xmlns:xlink="http://www.w3.org/1999/xlink" x="0px" y="0px"
	 viewBox="0 0 48 48" enable-background="new 0 0 48 48" xml:space="preserve">
<g>
	<g>
		<path fill="#000" d="M36,32.3c-0.2,0-0.4-0.1-0.5-0.3c-0.1-0.3,0.1-0.5,0.3-0.6c5.4-1.7,8.5-4.5,8.5-7.4c0-4.4-6.9-8.1-16.4-9
			c-0.3,0-0.5-0.3-0.5-0.5c0-0.3,0.3-0.5,0.5-0.5c10.2,0.9,17.3,5,17.3,10c0,3.4-3.4,6.5-9.2,8.4C36.1,32.3,36,32.3,36,32.3z"/>
	</g>
	<g>
		<path fill="#000" d="M12,32.3c-0.1,0-0.1,0-0.2,0c-5.8-1.9-9.2-5-9.2-8.4c0-5.7,9.4-10.2,21.3-10.2c0.3,0,0.6,0,1,0
			c0.3,0,0.5,0.2,0.5,0.5c0,0.3-0.2,0.5-0.5,0.5c-0.3,0-0.6,0-0.9,0c-11.2,0-20.3,4.1-20.3,9.2c0,2.9,3.2,5.7,8.5,7.4
			c0.3,0.1,0.4,0.4,0.3,0.6C12.4,32.2,12.3,32.3,12,32.3z"/>
	</g>
	<g>
		<path fill="#000" d="M24.7,16.5c-1.2,0-2.2-1-2.2-2.2s1-2.2,2.2-2.2c1.2,0,2.2,1,2.2,2.2S25.9,16.5,24.7,16.5z M24.7,13
			c-0.7,0-1.2,0.6-1.2,1.2s0.6,1.2,1.2,1.2s1.2-0.6,1.2-1.2S25.4,13,24.7,13z"/>
	</g>
	<g>
		<path fill="#000" d="M12.1,34c-0.8,0-1.5-0.4-1.9-1.1c-0.2-0.3-0.3-0.7-0.3-1.1c0-0.6,0.2-1.2,0.6-1.6c0.4-0.4,1-0.7,1.6-0.7
			c0.5,0,1.1,0.2,1.5,0.6l-0.7,0.8c-0.2-0.2-0.5-0.3-0.8-0.3c-0.3,0-0.6,0.1-0.9,0.4s-0.4,0.6-0.4,0.9c0,0.2,0.1,0.4,0.2,0.6
			c0.2,0.4,0.6,0.6,1.1,0.6c0.1,0,0.1,0,0.2,0l0.1,1C12.3,34,12.2,34,12.1,34C12.1,34,12.1,34,12.1,34z"/>
	</g>
	<g>
		<path fill="#000" d="M36,34.1c-0.1,0-0.3,0-0.4,0l0.2-1c0.7,0.1,1.5-0.5,1.5-1.2c0-0.7-0.6-1.2-1.2-1.2c-0.3,0-0.6,0.1-0.8,0.3
			l-0.7-0.7c0.4-0.4,0.9-0.6,1.5-0.6c1.2,0,2.2,1,2.2,2.2S37.2,34.1,36,34.1z"/>
	</g>
	<g>
		<g>
			<path fill="#000" d="M24,36c-3.7,0-7.4-0.4-10.7-1.3c-0.6-0.2-1.2-0.6-1.5-1.1s-0.4-1.2-0.3-1.9c0.3-1.3,1.7-2.1,3-1.8
				c2.8,0.7,6.1,1.1,9.4,1.1c3.4,0,6.6-0.4,9.4-1.1c1.3-0.3,2.7,0.5,3,1.8c0.3,1.3-0.5,2.7-1.8,3C31.4,35.6,27.7,36,24,36z M14,30.8
				c-0.7,0-1.3,0.5-1.4,1.1c-0.2,0.8,0.3,1.6,1.1,1.8c6.4,1.6,14.5,1.6,20.8,0c0.8-0.2,1.3-1,1.1-1.8c-0.2-0.8-1-1.3-1.8-1.1
				C30.8,31.6,27.4,32,24,32c-3.4,0-6.8-0.4-9.7-1.1C14.2,30.9,14.1,30.8,14,30.8z"/>
		</g>
	</g>
</g>
</svg>
