<?xml version="1.0" encoding="utf-8"?>
<!-- Generator: Adobe Illustrator 16.0.0, SVG Export Plug-In . SVG Version: 6.00 Build 0)  -->
<!DOCTYPE svg PUBLIC "-//W3C//DTD SVG 1.1//EN" "http://www.w3.org/Graphics/SVG/1.1/DTD/svg11.dtd">
<svg version="1.1" id="Camada_1" xmlns="http://www.w3.org/2000/svg" xmlns:xlink="http://www.w3.org/1999/xlink" x="0px" y="0px"
	 width="156.5px" height="156.503px" viewBox="0 0 156.5 156.503" enable-background="new 0 0 156.5 156.503" xml:space="preserve">
<g>
	<g>
		<g>
			<path fill="#666666" d="M82.718,34.085H71.103c-4.306,0-7.809-3.936-7.809-8.773v-12.05c0-4.839,3.503-8.776,7.809-8.776h11.615
				c4.306,0,7.808,3.937,7.808,8.775v12.051C90.525,30.149,87.021,34.085,82.718,34.085z M71.103,8.486
				c-2.065,0-3.809,2.188-3.809,4.776v12.05c0,2.587,1.744,4.773,3.809,4.773h11.615c2.063,0,3.808-2.186,3.808-4.773V13.261
				c0-2.588-1.743-4.775-3.808-4.775H71.103z"/>
		</g>
		<g>
			<path fill="#666666" d="M98.259,32.583c-0.172,0-0.345-0.011-0.519-0.034l-5.699-0.742c-1.398-0.181-2.628-1.092-3.369-2.499
				c-0.632-1.198-0.873-2.673-0.681-4.155l0.938-7.19c0.428-3.31,2.924-5.741,5.615-5.397l5.699,0.742
				c2.712,0.354,4.49,3.277,4.052,6.653l-0.938,7.192C102.956,30.248,100.764,32.583,98.259,32.583z M94.027,16.532
				c-0.209,0-0.959,0.606-1.133,1.945l-0.938,7.191c-0.086,0.66,0.006,1.307,0.252,1.774c0.152,0.289,0.307,0.392,0.348,0.397
				l5.701,0.743c0.205,0,0.959-0.607,1.133-1.947l0.938-7.192c0.17-1.304-0.394-2.143-0.603-2.17L94.027,16.532L94.027,16.532z"/>
		</g>
		<g>
			<path fill="#666666" d="M55.31,32.583c-2.504,0-4.696-2.335-5.098-5.431l-0.936-7.19c-0.44-3.376,1.338-6.298,4.048-6.653
				l5.703-0.743c2.685-0.351,5.188,2.086,5.619,5.398l0.936,7.188c0.192,1.483-0.049,2.958-0.68,4.156
				c-0.742,1.408-1.971,2.318-3.373,2.5l-5.698,0.742C55.655,32.572,55.482,32.583,55.31,32.583z M59.548,16.532l-5.707,0.743
				c-0.208,0.027-0.77,0.865-0.599,2.17l0.936,7.191c0.174,1.34,0.927,1.947,1.132,1.947h0.004l5.699-0.742
				c0.042-0.005,0.196-0.108,0.348-0.396c0.246-0.467,0.338-1.115,0.252-1.776l-0.936-7.188
				C60.503,17.139,59.752,16.532,59.548,16.532z"/>
		</g>
	</g>
	<g>
		<path fill="#666666" d="M79.352,152.018c-38.679,0-70.146-31.468-70.146-70.147c0-27.91,16.534-53.159,42.121-64.326l1.6,3.666
			c-24.129,10.53-39.721,34.341-39.721,60.66c0,36.475,29.673,66.147,66.146,66.147c36.476,0,66.148-29.674,66.148-66.147
			c0-27.457-17.271-52.364-42.979-61.979l1.4-3.746C131.186,26.341,149.5,52.754,149.5,81.871
			C149.5,120.55,118.031,152.018,79.352,152.018z"/>
	</g>
	<g>
		<path fill="#666666" d="M79.352,141.817c-33.055,0-59.948-26.894-59.948-59.948c-0.001-22.928,12.762-43.512,33.31-53.72
			l1.779,3.582c-19.177,9.527-31.09,28.739-31.089,50.138c0,30.85,25.098,55.948,55.948,55.948
			c30.851,0,55.948-25.099,55.948-55.948c0-22.772-13.606-43.09-34.667-51.759l1.523-3.699
			c22.564,9.288,37.144,31.057,37.144,55.458C139.3,114.923,112.407,141.817,79.352,141.817z"/>
	</g>
</g>
</svg>
